<svg width="128" height="128" viewBox="0 0 128 128" fill="none" xmlns="http://www.w3.org/2000/svg">
<path d="M13 72C13 60.9543 21.9543 52 33 52H59C70.0457 52 79 60.9543 79 72V96C79 98.2091 77.2091 100 75 100H17C14.7909 100 13 98.2091 13 96V72Z" fill="#786350"/>
<path fill-rule="evenodd" clip-rule="evenodd" d="M81 64C76.5817 64 73 67.5817 73 72V87V92V96C73 98.2091 74.7909 100 77 100H103C107.418 100 111 96.4183 111 92V87C111 85.2816 110.458 83.6897 109.536 82.3859C108.299 80.6372 107 78.7513 107 76.6095V72C107 67.5817 103.418 64 99 64H81Z" fill="#FF900D"/>
<path fill-rule="evenodd" clip-rule="evenodd" d="M102.293 64.707C101.289 64.2528 100.174 64 99 64H81C76.5817 64 73 67.5817 73 72V75.4187C73.9264 75.7937 74.9391 76.0002 76 76.0002H95C99.4183 76.0002 103 72.4185 103 68.0002C103 66.8262 102.747 65.7113 102.293 64.707Z" fill="#FF900D"/>
<path fill-rule="evenodd" clip-rule="evenodd" d="M102.293 64.707C101.289 64.2528 100.174 64 99 64H81C76.5817 64 73 67.5817 73 72V75.4187C73.9264 75.7937 74.9391 76.0002 76 76.0002H95C99.4183 76.0002 103 72.4185 103 68.0002C103 66.8262 102.747 65.7113 102.293 64.707Z" fill="black" fill-opacity="0.2"/>
<g filter="url(#filter0_d_444_1537)">
<path d="M19 57.6667C19 42.9391 30.9391 31 45.6667 31H46.3333C61.0609 31 73 42.9391 73 57.6667V57.6667C73 65.0305 67.0305 71 59.6667 71H32.3333C24.9695 71 19 65.0305 19 57.6667V57.6667Z" fill="#786350"/>
</g>
<path d="M28 32.5714C28 30.0467 30.0467 28 32.5714 28V28C34.465 28 36 29.535 36 31.4286V38C36 40.2091 34.2091 42 32 42V42C29.7909 42 28 40.2091 28 38V32.5714Z" fill="#786350"/>
<path d="M30 32.6667C30 31.1939 31.1939 30 32.6667 30V30C33.403 30 34 30.597 34 31.3333V32.6667C34 33.403 33.403 34 32.6667 34H30.8C30.3582 34 30 33.6418 30 33.2V32.6667Z" fill="#EBCFB6"/>
<path d="M56 31.4286C56 29.535 57.535 28 59.4286 28V28C61.9533 28 64 30.0467 64 32.5714V38C64 40.2091 62.2091 42 60 42V42C57.7909 42 56 40.2091 56 38V31.4286Z" fill="#786350"/>
<path d="M89 45C89 43.8954 89.8954 43 91 43V43C93.2091 43 95 44.7909 95 47V50C95 51.6569 93.6569 53 92 53V53C90.3431 53 89 51.6569 89 50V45Z" fill="#FF900D"/>
<path d="M90 46.3333C90 45.597 90.597 45 91.3333 45V45C92.8061 45 94 46.1939 94 47.6667V49C94 50.1046 93.1046 51 92 51V51C90.8954 51 90 50.1046 90 49V46.3333Z" fill="#FFBC7E"/>
<path d="M73 47C73 44.7909 74.7909 43 77 43V43C78.1046 43 79 43.8954 79 45V50C79 51.6569 77.6569 53 76 53V53C74.3431 53 73 51.6569 73 50V47Z" fill="#FF900D"/>
<path d="M74 47.6667C74 46.1939 75.1939 45 76.6667 45V45C77.403 45 78 45.597 78 46.3333V49C78 50.1046 77.1046 51 76 51V51C74.8954 51 74 50.1046 74 49V47.6667Z" fill="#FFBC7E"/>
<path fill-rule="evenodd" clip-rule="evenodd" d="M47 45.25C49.3488 45.25 51.4279 47.5458 52.8255 49.4336C53.5636 50.4306 54 51.6643 54 53C54 56.3137 51.3137 59 48 59H44C40.6863 59 38 56.3137 38 53C38 51.6643 38.4364 50.4306 39.1745 49.4336C40.5721 47.5458 42.6512 45.25 45 45.25V45.25H47V45.25Z" fill="#EBCFB6"/>
<path fill-rule="evenodd" clip-rule="evenodd" d="M47 45C49.5002 45 51.675 47.6404 53.0363 49.7375C53.6459 50.6766 54 51.797 54 53C54 56.3137 51.3137 59 48 59H44C40.6863 59 38 56.3137 38 53C38 51.797 38.3541 50.6766 38.9637 49.7375C40.325 47.6404 42.4998 45 45 45V45H47V45Z" fill="#EBCFB6"/>
<rect x="38" y="40" width="2" height="8" rx="1" fill="black"/>
<rect x="52" y="40" width="2" height="8" rx="1" fill="black"/>
<path d="M42.4645 48.9301C41.989 47.9333 42.8942 47 43.9985 47H47.9995C49.1039 47 50.0091 47.9333 49.5335 48.9301C49.0456 49.9528 48.0462 51 45.999 51C43.9519 51 42.9524 49.9528 42.4645 48.9301Z" fill="black"/>
<path d="M58 31.3333C58 30.597 58.597 30 59.3333 30V30C60.8061 30 62 31.1939 62 32.6667V33.2C62 33.6418 61.6418 34 61.2 34H59.3333C58.597 34 58 33.403 58 32.6667V31.3333Z" fill="#EBCFB6"/>
<path fill-rule="evenodd" clip-rule="evenodd" d="M77 47C72.5817 47 69 50.5817 69 55V56.8745C69 58.6952 68.0504 60.3512 67.1196 61.9159C66.4084 63.1114 66 64.508 66 66C66 70.4183 69.5817 74 74 74H94C98.4183 74 102 70.4183 102 66C102 64.508 101.592 63.1114 100.88 61.9159C99.9496 60.3512 99 58.6952 99 56.8745V55C99 50.5817 95.4183 47 91 47H77Z" fill="#FF900D"/>
<rect x="78" y="53" width="2" height="8" rx="1" fill="black"/>
<rect x="85" y="53" width="2" height="8" rx="1" fill="black"/>
<path fill-rule="evenodd" clip-rule="evenodd" d="M101.955 66.8531C97.9691 63.9164 91.4127 62 84 62C76.5873 62 70.0308 63.9164 66.0449 66.8531C66.4707 70.8702 69.8699 74 74 74H94C98.1301 74 101.529 70.8702 101.955 66.8531Z" fill="#FFBC7E"/>
<rect x="82" y="61" width="1" height="8" rx="0.5" fill="black"/>
<path d="M80.0662 62.589C79.0981 62.0577 79.895 61 80.9993 61H83.0007C84.105 61 84.9019 62.0577 83.9338 62.589C83.4948 62.8299 82.875 63 82 63C81.125 63 80.5052 62.8299 80.0662 62.589Z" fill="black"/>
<path d="M126.719 73.7896C126.933 72.6748 126.78 71.89 126.165 70.9365C125.699 70.2151 125.272 69.8767 124.5 69.4999C122.688 68.6152 120.296 69.6155 119.428 70.4609C117.855 71.9922 117.337 73.5141 117.367 75.6917C117.401 78.0976 118.945 79.9752 119.815 82.1113C120.76 84.4288 121.33 86.9039 121.33 89.3938C121.33 91.5204 118.976 93.4376 117.121 94.0786C113.813 95.2214 109.398 94.4089 107.381 91.384" stroke="#FF900D" stroke-width="2" stroke-linecap="round"/>
<path fill-rule="evenodd" clip-rule="evenodd" d="M121.885 70.2934C121.773 70.1937 121.682 70.0673 121.623 69.9189C121.497 69.605 121.468 69.3041 121.461 69.0748C121.457 68.953 121.461 68.7593 121.464 68.6322L121.464 68.6322L121.464 68.6322C121.465 68.5805 121.466 68.5398 121.466 68.5195C121.466 68.4555 121.472 68.3929 121.483 68.3323C122.075 68.189 122.736 68.1145 123.406 68.1783C123.445 68.2848 123.466 68.3997 123.466 68.5195C123.466 68.6028 123.464 68.6886 123.462 68.7593L123.461 68.805C123.459 68.89 123.458 68.9549 123.46 69.013C123.464 69.1302 123.477 69.1689 123.48 69.1761C123.62 69.5266 123.548 69.9093 123.325 70.182C122.875 70.1216 122.383 70.1649 121.885 70.2934Z" fill="black" fill-opacity="0.5"/>
<path fill-rule="evenodd" clip-rule="evenodd" d="M116.998 72.1496C117.268 71.5413 117.629 70.9767 118.086 70.4346C118.457 70.7973 118.762 70.9982 119.239 71.1893C119.449 71.273 119.614 71.4196 119.723 71.5986C119.274 72.1051 118.968 72.5985 118.761 73.1123C118.673 73.1028 118.584 73.0811 118.497 73.0463C117.897 72.8064 117.44 72.5298 116.998 72.1496Z" fill="black" fill-opacity="0.5"/>
<path fill-rule="evenodd" clip-rule="evenodd" d="M125.784 73.3149C125.826 72.9865 125.817 72.726 125.772 72.493C125.714 72.196 125.584 71.8802 125.325 71.4785C125.299 71.4385 125.274 71.4006 125.249 71.3646C125.254 71.3623 125.259 71.36 125.264 71.3576C125.528 71.2296 125.851 71.0471 126.165 70.8459C126.475 70.6471 126.747 70.4481 126.934 70.2852C126.957 70.3207 126.981 70.3568 127.005 70.3935C127.361 70.9454 127.616 71.4987 127.735 72.1112C127.74 72.1363 127.744 72.1613 127.749 72.1863C127.585 72.3047 127.415 72.4203 127.245 72.5292C126.877 72.7655 126.484 72.9892 126.134 73.1581C126.018 73.2146 125.899 73.2681 125.784 73.3149Z" fill="black" fill-opacity="0.5"/>
<path fill-rule="evenodd" clip-rule="evenodd" d="M83.7159 47C83.7278 47.0502 83.7321 47.1031 83.7276 47.1572C83.6525 48.0583 83.6562 48.9611 83.6599 49.8902V49.8902C83.6607 50.0941 83.6616 50.2991 83.6616 50.5057C83.6616 50.7819 83.4377 51.0057 83.1616 51.0057C82.8854 51.0057 82.6616 50.7819 82.6616 50.5057C82.6616 50.3083 82.6607 50.1094 82.6599 49.9094L82.6599 49.9094C82.656 48.9786 82.652 48.023 82.7311 47.0742C82.7332 47.0488 82.7372 47.0241 82.7429 47H83.7159Z" fill="black"/>
<path d="M82.0767 49.5566H83.9751" stroke="black" stroke-linecap="round"/>
<path d="M81.5342 47.7939C82.575 47.7939 83.6119 47.8617 84.653 47.8617" stroke="black" stroke-linecap="round"/>
<path fill-rule="evenodd" clip-rule="evenodd" d="M100.773 70.2603C100.757 70.2469 100.74 70.2343 100.722 70.2227C99.4129 69.3784 98.2429 68.5277 97.4047 67.3086C97.2483 67.081 96.937 67.0234 96.7095 67.1798C96.4819 67.3363 96.4243 67.6476 96.5807 67.8751C97.5394 69.2696 98.8573 70.21 100.179 71.063C100.183 71.0651 100.186 71.0672 100.189 71.0692C100.4 70.8124 100.595 70.5423 100.773 70.2603Z" fill="black"/>
<path fill-rule="evenodd" clip-rule="evenodd" d="M101.587 68.5442C101.552 68.464 101.496 68.392 101.419 68.3374C101.228 68.2008 101.025 68.069 100.833 67.9446L100.833 67.9446C100.759 67.8964 100.687 67.8493 100.617 67.8035C100.359 67.6332 100.124 67.4685 99.9147 67.2842C99.8838 67.257 99.6945 67.0803 99.5101 66.9029C99.4192 66.8155 99.3348 66.7331 99.276 66.6733C99.2601 66.6572 99.2477 66.6443 99.2384 66.6345C99.1162 66.4526 98.8834 66.3667 98.6654 66.4394C98.5881 66.4651 98.5032 66.5148 98.4349 66.5988C98.3678 66.6814 98.3387 66.7702 98.3282 66.8409C98.3098 66.9645 98.3432 67.0596 98.3527 67.0859C98.3756 67.1497 98.4072 67.1953 98.4145 67.2059L98.4152 67.2068C98.4365 67.2378 98.4592 67.2637 98.4699 67.2759C98.4964 67.3059 98.5301 67.341 98.5633 67.3748C98.632 67.4446 98.7243 67.5347 98.817 67.6237C98.9995 67.7993 99.2041 67.991 99.254 68.0349C99.5168 68.2661 99.7984 68.4613 100.067 68.6382C100.149 68.6929 100.23 68.745 100.308 68.7959L100.308 68.7959C100.492 68.9154 100.666 69.0282 100.838 69.1512C100.988 69.2584 101.177 69.2708 101.334 69.2002C101.428 68.9862 101.512 68.7674 101.587 68.5442Z" fill="black"/>
<path fill-rule="evenodd" clip-rule="evenodd" d="M66.7869 69.4639C67.0414 69.444 67.2764 69.3355 67.4406 69.2468C67.6021 69.1596 67.7582 69.0554 67.8667 68.9828L67.8667 68.9828L67.9225 68.9457C68.6833 68.4435 69.3076 67.7957 69.8852 67.1925C70.0762 66.993 70.0693 66.6765 69.8698 66.4855C69.6704 66.2946 69.3539 66.3014 69.1629 66.5009C68.5761 67.1138 68.0247 67.68 67.3716 68.1111L67.3002 68.1585L67.3002 68.1585C67.1912 68.2312 67.0817 68.3042 66.9656 68.3668C66.8137 68.4488 66.7304 68.4671 66.7062 68.4671C66.5989 68.4671 66.4994 68.5009 66.418 68.5584C66.5228 68.8692 66.6462 69.1715 66.7869 69.4639Z" fill="black"/>
<path fill-rule="evenodd" clip-rule="evenodd" d="M68.0773 71.3781C68.1102 71.3729 68.1431 71.3643 68.1756 71.3522C68.8548 71.0975 69.6162 70.6954 70.2691 70.1672C70.9179 69.6424 71.4966 68.9627 71.7422 68.1438C71.8216 67.8793 71.6715 67.6006 71.407 67.5212C71.1425 67.4419 70.8638 67.592 70.7844 67.8565C70.6177 68.4123 70.2015 68.9357 69.6402 69.3897C69.083 69.8405 68.419 70.1929 67.8244 70.4158C67.6836 70.4686 67.5807 70.5781 67.5317 70.7087C67.7016 70.9417 67.8838 71.1651 68.0773 71.3781Z" fill="black"/>
<defs>
<filter id="filter0_d_444_1537" x="19" y="31" width="54" height="42" filterUnits="userSpaceOnUse" color-interpolation-filters="sRGB">
<feFlood flood-opacity="0" result="BackgroundImageFix"/>
<feColorMatrix in="SourceAlpha" type="matrix" values="0 0 0 0 0 0 0 0 0 0 0 0 0 0 0 0 0 0 127 0" result="hardAlpha"/>
<feOffset dy="2"/>
<feComposite in2="hardAlpha" operator="out"/>
<feColorMatrix type="matrix" values="0 0 0 0 0 0 0 0 0 0 0 0 0 0 0 0 0 0 0.25 0"/>
<feBlend mode="normal" in2="BackgroundImageFix" result="effect1_dropShadow_444_1537"/>
<feBlend mode="normal" in="SourceGraphic" in2="effect1_dropShadow_444_1537" result="shape"/>
</filter>
</defs>
</svg>
