<svg width="128" height="128" viewBox="0 0 128 128" fill="none" xmlns="http://www.w3.org/2000/svg">
<path d="M48.999 17.5001C48.999 12.5295 53.0285 8.5 57.9991 8.5V8.5C59.656 8.5 60.9992 9.84316 60.9992 11.5V26.5002H48.999V17.5001Z" fill="#2E2E2E"/>
<path d="M79 17.5001C79 12.5295 74.9705 8.5 69.9999 8.5V8.5C68.343 8.5 66.9999 9.84316 66.9999 11.5V26.5002H79V17.5001Z" fill="#2E2E2E"/>
<path d="M48.999 20.4991C48.999 15.5285 53.0285 11.499 57.9991 11.499V11.499C59.656 11.499 60.9992 12.8422 60.9992 14.4991V29.4992H48.999V20.4991Z" fill="#2E2E2E"/>
<path d="M48.999 20.4991C48.999 15.5285 53.0285 11.499 57.9991 11.499V11.499C59.656 11.499 60.9992 12.8422 60.9992 14.4991V29.4992H48.999V20.4991Z" fill="black" fill-opacity="0.2"/>
<path d="M79 20.5006C79 15.53 74.9705 11.5005 69.9999 11.5005V11.5005C68.343 11.5005 66.9999 12.8437 66.9999 14.5005V29.5006H79V20.5006Z" fill="#2E2E2E"/>
<path d="M79 20.5006C79 15.53 74.9705 11.5005 69.9999 11.5005V11.5005C68.343 11.5005 66.9999 12.8437 66.9999 14.5005V29.5006H79V20.5006Z" fill="black" fill-opacity="0.2"/>
<path d="M64.0007 14.4985C84.8297 14.4985 81.8539 32.4987 81.8539 32.4987H46.1475C46.1475 32.4987 43.1717 14.4985 64.0007 14.4985Z" fill="#2E2E2E"/>
<path d="M64.0007 23.5015C84.8297 23.5015 81.8539 32.5015 81.8539 32.5015H46.1475C46.1475 32.5015 43.1717 23.5015 64.0007 23.5015Z" fill="#2E2E2E"/>
<path d="M64.0007 23.5015C84.8297 23.5015 81.8539 32.5015 81.8539 32.5015H46.1475C46.1475 32.5015 43.1717 23.5015 64.0007 23.5015Z" fill="black" fill-opacity="0.2"/>
<path d="M39.9995 83.4996C39.9995 80.1858 42.6858 77.4995 45.9996 77.4995H82C85.3138 77.4995 88.0001 80.1858 88.0001 83.4996V95.4996C88.0001 108.755 77.2548 119.5 63.9998 119.5V119.5C50.7448 119.5 39.9995 108.755 39.9995 95.4996V83.4996Z" fill="#FF5A5F"/>
<path d="M57.9995 80.4995H69.9997V83.4995C69.9997 86.8133 67.3133 89.4996 63.9996 89.4996V89.4996C60.6858 89.4996 57.9995 86.8133 57.9995 83.4995V80.4995Z" fill="#FBD2D2"/>
<path fill-rule="evenodd" clip-rule="evenodd" d="M80.4969 77.5015H82.0013C85.315 77.5015 88.0013 80.1878 88.0013 83.5015V89.3468C87.5166 89.4452 87.0149 89.4969 86.5011 89.4969C82.3589 89.4969 79.001 86.139 79.001 81.9968C79.001 80.3105 79.5575 78.7542 80.4969 77.5015Z" fill="#FFB800"/>
<ellipse cx="63.9972" cy="101.5" rx="12.0001" ry="12.0001" fill="#FFB800"/>
<path fill-rule="evenodd" clip-rule="evenodd" d="M41.4965 89.4985C45.6387 89.4985 48.9966 86.1406 48.9966 81.9984C48.9966 80.3114 48.4396 78.7544 47.4995 77.5015H45.9996C42.6858 77.5015 39.9995 80.1878 39.9995 83.5015V89.3491C40.4833 89.447 40.9839 89.4985 41.4965 89.4985Z" fill="#FFB800"/>
<path fill-rule="evenodd" clip-rule="evenodd" d="M83.8552 77.793C78.9213 83.1468 71.8501 86.5007 63.9955 86.5007C56.1422 86.5007 49.072 83.1479 44.1382 77.7956C44.7244 77.6044 45.3504 77.501 46.0005 77.501H82.0009C82.648 77.501 83.2713 77.6034 83.8552 77.793Z" fill="black" fill-opacity="0.1"/>
<ellipse cx="63.9993" cy="56.4997" rx="27.0003" ry="27.0002" fill="#FBD2D2"/>
<ellipse cx="92.5001" cy="57.9995" rx="4.50005" ry="4.50004" fill="#FBD2D2"/>
<ellipse cx="35.5" cy="57.9995" rx="4.50005" ry="4.50004" fill="#FBD2D2"/>
<path d="M58.0005 80.5001C56.3436 80.5001 54.9805 81.8483 55.1814 83.493C55.5312 86.3561 56.3784 89.0099 57.6366 91.1068C59.3244 93.9199 61.6136 95.5003 64.0006 95.5003C66.3876 95.5003 68.6768 93.9199 70.3646 91.1068C71.6228 89.0099 72.47 86.3561 72.8198 83.493C73.0207 81.8483 71.6575 80.5001 70.0007 80.5001L64.0006 80.5001L58.0005 80.5001Z" fill="#2E2E2E"/>
<path d="M70.0007 71.4995C71.6575 71.4995 72.4431 70.188 70.9039 69.5747C70.7337 69.5068 70.5538 69.4413 70.3646 69.3782C68.6768 68.8156 66.3876 68.4995 64.0006 68.4995C61.6136 68.4995 59.3244 68.8156 57.6366 69.3782C57.4474 69.4413 57.2675 69.5068 57.0972 69.5747C55.5581 70.188 56.3436 71.4995 58.0005 71.4995L64.0006 71.4995H70.0007Z" fill="#2E2E2E"/>
<path d="M63.3552 74.501C62.0539 74.501 60.9576 75.7022 61.8777 76.6223V76.6223C62.4403 77.185 63.2034 77.501 63.9991 77.501C64.7947 77.501 65.5578 77.185 66.1204 76.6223V76.6223C67.0405 75.7022 65.9442 74.501 64.6429 74.501L63.9991 74.501L63.3552 74.501Z" fill="#2E2E2E"/>
<path d="M63.9999 26.5C95.5007 26.5 91.0003 53.5002 91.0003 53.5002H36.9996C36.9996 53.5002 32.4992 26.5 63.9999 26.5Z" fill="#2E2E2E"/>
</svg>
