<svg width="32" height="32" viewBox="0 0 32 32" fill="none" xmlns="http://www.w3.org/2000/svg">
<path fill-rule="evenodd" clip-rule="evenodd" d="M18.4389 9.95408C20.7821 12.2972 20.7821 16.0962 18.4389 18.4394C16.0958 20.7825 12.2968 20.7825 9.95365 18.4394C7.6105 16.0962 7.6105 12.2972 9.95365 9.95408C12.2968 7.61093 16.0958 7.61093 18.4389 9.95408ZM20.5165 19.1027C22.959 15.9643 22.7379 11.4246 19.8531 8.53987C16.7289 5.41567 11.6636 5.41567 8.53943 8.53987C5.41524 11.6641 5.41524 16.7294 8.53943 19.8536C11.4242 22.7383 15.9638 22.9594 19.1023 20.5169L24.0958 25.5104C24.4863 25.901 25.1195 25.901 25.51 25.5104C25.9005 25.1199 25.9005 24.4867 25.51 24.0962L20.5165 19.1027Z" fill="#408CFF"/>
</svg>
