<svg width="16" height="17" viewBox="0 0 16 17" fill="none" xmlns="http://www.w3.org/2000/svg">
<rect x="6.25" y="6.75" width="3.5" height="0.5" rx="0.25" stroke="#408CFF" stroke-width="0.5"/>
<rect x="6.25" y="8.75" width="3.5" height="0.5" rx="0.25" stroke="#408CFF" stroke-width="0.5"/>
<rect x="6.25" y="10.75" width="3.5" height="0.5" rx="0.25" stroke="#408CFF" stroke-width="0.5"/>
<path fill-rule="evenodd" clip-rule="evenodd" d="M5.5 3.5C5.22386 3.5 5 3.72386 5 4V13C5 13.2761 5.22386 13.5 5.5 13.5H10.5C10.7761 13.5 11 13.2761 11 13V5.91421C11 5.68545 10.8145 5.5 10.5858 5.5H10H9.5H9V5V4.5V3.91421C9 3.68545 8.81455 3.5 8.58579 3.5H5.5ZM9.14645 2.64645C9.05268 2.55268 8.9255 2.5 8.79289 2.5H5C4.44772 2.5 4 2.94772 4 3.5V13.5C4 14.0523 4.44772 14.5 5 14.5H11C11.5523 14.5 12 14.0523 12 13.5V5.70711C12 5.5745 11.9473 5.44732 11.8536 5.35355L11 4.5L10.5 4L10 3.5L9.14645 2.64645Z" fill="#408CFF"/>
</svg>
