<svg width="16" height="16" viewBox="0 0 16 16" fill="none" xmlns="http://www.w3.org/2000/svg">
<rect x="6.25" y="6.25" width="3.5" height="0.5" rx="0.25" stroke="#FF99BE" stroke-width="0.5"/>
<rect x="6.25" y="8.25" width="3.5" height="0.5" rx="0.25" stroke="#FF99BE" stroke-width="0.5"/>
<rect x="6.25" y="10.25" width="3.5" height="0.5" rx="0.25" stroke="#FF99BE" stroke-width="0.5"/>
<path fill-rule="evenodd" clip-rule="evenodd" d="M5.5 3C5.22386 3 5 3.22386 5 3.5V12.5C5 12.7761 5.22386 13 5.5 13H10.5C10.7761 13 11 12.7761 11 12.5V5.41421C11 5.18545 10.8145 5 10.5858 5H10H9.5H9V4.5V4V3.41421C9 3.18545 8.81455 3 8.58579 3H5.5ZM9.14645 2.14645C9.05268 2.05268 8.9255 2 8.79289 2H5C4.44772 2 4 2.44772 4 3V13C4 13.5523 4.44772 14 5 14H11C11.5523 14 12 13.5523 12 13V5.20711C12 5.0745 11.9473 4.94732 11.8536 4.85355L11 4L10.5 3.5L10 3L9.14645 2.14645Z" fill="#FF99BE"/>
</svg>
