<svg width="32" height="32" viewBox="0 0 32 32" fill="none" xmlns="http://www.w3.org/2000/svg">
<rect width="32" height="32" rx="8" fill="white"/>
<rect x="15" y="6" width="2" height="6" rx="1" fill="#FF99BE"/>
<rect x="28" y="20" width="1" height="24" rx="0.500001" transform="rotate(90 28 20)" fill="#FF99BE"/>
<path fill-rule="evenodd" clip-rule="evenodd" d="M21.5006 19C21.7767 19 22.0028 18.7754 21.9801 18.5002C21.7261 15.4203 19.146 13 16.0006 13C12.8552 13 10.2751 15.4203 10.0211 18.5002C9.99841 18.7754 10.2244 19 10.5006 19H21.5006Z" fill="#FF99BE"/>
<rect x="23.7773" y="10.8076" width="2" height="4" rx="1" transform="rotate(45 23.7773 10.8076)" fill="#FF99BE"/>
<rect x="11.0508" y="13.6357" width="2" height="4" rx="1" transform="rotate(135 11.0508 13.6357)" fill="#FF99BE"/>
</svg>
