<svg width="24" height="24" viewBox="0 0 24 24" fill="none" xmlns="http://www.w3.org/2000/svg">
<path fill-rule="evenodd" clip-rule="evenodd" d="M12 24C18.6274 24 24 18.6274 24 12C24 5.37258 18.6274 0 12 0C5.37258 0 0 5.37258 0 12C0 18.6274 5.37258 24 12 24ZM17.3029 6.68926C17.8887 6.10347 18.8384 6.10347 19.4242 6.68926C20.01 7.27505 20.01 8.2248 19.4242 8.81058L10.9674 17.2674C10.9583 17.2769 10.9491 17.2864 10.9398 17.2957C10.7051 17.5304 10.412 17.671 10.1074 17.7177C9.65123 17.7878 9.16894 17.6472 8.81758 17.2959C8.80667 17.285 8.79596 17.2739 8.78545 17.2627L4.5758 13.0531C3.99001 12.4673 3.99001 11.5176 4.5758 10.9318C5.16158 10.346 6.11133 10.346 6.69712 10.9318L9.87874 14.1134L17.3029 6.68926Z" fill="white"/>
</svg>
