<svg width="136" height="128" viewBox="0 0 136 128" fill="none" xmlns="http://www.w3.org/2000/svg">
<g filter="url(#filter0_dd_444_1513)">
<path d="M132 70.3461C132 82.5814 103.346 92.5 68 92.5C32.6538 92.5 4 82.5814 4 70.3461C4 58.1108 35 52.5 68 52.5C101 52.5 132 58.1108 132 70.3461Z" fill="url(#paint0_linear_444_1513)"/>
<path d="M131.5 70.3461C131.5 73.1941 129.834 75.9802 126.654 78.5824C123.478 81.1817 118.852 83.5447 113.091 85.5388C101.575 89.5252 85.6327 92 68 92C50.3673 92 34.4251 89.5252 22.9087 85.5388C17.1481 83.5447 12.5221 81.1817 9.34611 78.5824C6.16642 75.9802 4.5 73.1941 4.5 70.3461C4.5 67.5293 6.27746 65.0174 9.63379 62.8138C12.9872 60.6122 17.8308 58.7805 23.7449 57.3202C35.5654 54.4016 51.5208 53 68 53C84.4792 53 100.435 54.4016 112.255 57.3202C118.169 58.7805 123.013 60.6122 126.366 62.8138C129.723 65.0174 131.5 67.5293 131.5 70.3461Z" stroke="white" stroke-opacity="0.5"/>
</g>
<g filter="url(#filter1_di_444_1513)">
<path d="M88.7076 40.1831C107.579 43.7193 104.632 59.4456 109.35 60.3296C113.47 61.1016 107.582 69.7653 83.9927 65.3452C60.4037 60.9251 58.0514 50.7173 62.1713 51.4892C66.8892 52.3733 69.836 36.647 88.7076 40.1831Z" fill="#EEEFCE"/>
</g>
<g filter="url(#filter2_ii_444_1513)">
<path fill-rule="evenodd" clip-rule="evenodd" d="M66.6844 50.9087C67.6867 50.5403 68.679 49.3404 69.9061 47.8568C73.1133 43.979 77.924 38.1623 88.7078 40.183C99.4916 42.2037 101.87 49.3674 103.456 54.1433C104.063 55.9719 104.554 57.4504 105.356 58.1562C101.153 61.1071 93.3543 62.2156 84.8786 60.6274C76.4018 59.0391 69.5326 55.1814 66.6844 50.9087Z" fill="#EEEFCE"/>
</g>
<g filter="url(#filter3_f_444_1513)">
<ellipse cx="1.6" cy="1.6" rx="1.6" ry="1.6" transform="matrix(0.555598 0.831451 -0.831452 0.555596 66.3296 52.2686)" fill="white"/>
</g>
<g filter="url(#filter4_f_444_1513)">
<ellipse cx="1.6" cy="4.80001" rx="1.6" ry="4.80001" transform="matrix(0.555598 0.831451 -0.831452 0.555596 80.1138 42.6426)" fill="white"/>
</g>
<g filter="url(#filter5_di_444_1513)">
<path d="M51.7849 41.1001C73.385 41.1001 73.385 59.1001 78.785 59.1001C83.5005 59.1001 78.7845 69.9001 51.7849 69.9001C24.7854 69.9001 20.0693 59.1001 24.7848 59.1001C30.1848 59.1001 30.1849 41.1001 51.7849 41.1001Z" fill="#FFAAC9"/>
</g>
<g filter="url(#filter6_ii_444_1513)">
<path fill-rule="evenodd" clip-rule="evenodd" d="M29.6553 57.5233C30.6872 56.9082 31.5359 55.3759 32.5854 53.4811C35.3282 48.5287 39.4425 41.1001 51.7854 41.1001C64.1283 41.1001 68.2426 48.5287 70.9855 53.4811C72.0357 55.3773 72.8848 56.9105 73.9179 57.5247C69.8826 61.6583 61.4884 64.5 51.7872 64.5C42.085 64.5 33.69 61.6577 29.6553 57.5233Z" fill="#FFAAC9"/>
</g>
<g filter="url(#filter7_f_444_1513)">
<ellipse cx="1.8" cy="5.40001" rx="1.8" ry="5.40001" transform="matrix(0.699226 0.714901 -0.714903 0.699224 40.7993 45.6001)" fill="white"/>
</g>
<g filter="url(#filter8_f_444_1513)">
<ellipse cx="1.8" cy="1.8" rx="1.8" ry="1.8" transform="matrix(0.699226 0.714901 -0.714903 0.699224 28.4521 58.2002)" fill="white"/>
</g>
<g filter="url(#filter9_di_444_1513)">
<path d="M76.5712 52.5C100.571 52.5 100.571 72.5 106.571 72.5C111.811 72.5 106.571 84.5 76.5712 84.5C46.5718 84.5 41.3318 72.5 46.5712 72.5C52.5712 72.5 52.5712 52.5 76.5712 52.5Z" fill="#51B64F"/>
</g>
<g filter="url(#filter10_ii_444_1513)">
<path fill-rule="evenodd" clip-rule="evenodd" d="M51.9824 70.748C53.1291 70.0645 54.072 68.362 55.2381 66.2566C58.2857 60.754 62.8571 52.5 76.5714 52.5C90.2857 52.5 94.8571 60.754 97.9047 66.2566C99.0716 68.3635 100.015 70.0671 101.163 70.7495C96.6793 75.3425 87.3525 78.4999 76.5734 78.4999C65.7931 78.4999 56.4654 75.3417 51.9824 70.748Z" fill="#51B64F"/>
</g>
<g filter="url(#filter11_f_444_1513)">
<circle cx="51.828" cy="75.3283" r="2" transform="rotate(45.6352 51.828 75.3283)" fill="white"/>
</g>
<g filter="url(#filter12_f_444_1513)">
<ellipse cx="63.6877" cy="63.1252" rx="2" ry="6" transform="rotate(45.6352 63.6877 63.1252)" fill="white"/>
</g>
<defs>
<filter id="filter0_dd_444_1513" x="0" y="52.5" width="136" height="48" filterUnits="userSpaceOnUse" color-interpolation-filters="sRGB">
<feFlood flood-opacity="0" result="BackgroundImageFix"/>
<feColorMatrix in="SourceAlpha" type="matrix" values="0 0 0 0 0 0 0 0 0 0 0 0 0 0 0 0 0 0 127 0" result="hardAlpha"/>
<feOffset dy="4"/>
<feGaussianBlur stdDeviation="2"/>
<feComposite in2="hardAlpha" operator="out"/>
<feColorMatrix type="matrix" values="0 0 0 0 1 0 0 0 0 1 0 0 0 0 1 0 0 0 0.25 0"/>
<feBlend mode="normal" in2="BackgroundImageFix" result="effect1_dropShadow_444_1513"/>
<feColorMatrix in="SourceAlpha" type="matrix" values="0 0 0 0 0 0 0 0 0 0 0 0 0 0 0 0 0 0 127 0" result="hardAlpha"/>
<feOffset dy="4"/>
<feGaussianBlur stdDeviation="2"/>
<feComposite in2="hardAlpha" operator="out"/>
<feColorMatrix type="matrix" values="0 0 0 0 0 0 0 0 0 0 0 0 0 0 0 0 0 0 0.25 0"/>
<feBlend mode="normal" in2="effect1_dropShadow_444_1513" result="effect2_dropShadow_444_1513"/>
<feBlend mode="normal" in="SourceGraphic" in2="effect2_dropShadow_444_1513" result="shape"/>
</filter>
<filter id="filter1_di_444_1513" x="54.1254" y="34.8641" width="62.8366" height="39.7312" filterUnits="userSpaceOnUse" color-interpolation-filters="sRGB">
<feFlood flood-opacity="0" result="BackgroundImageFix"/>
<feColorMatrix in="SourceAlpha" type="matrix" values="0 0 0 0 0 0 0 0 0 0 0 0 0 0 0 0 0 0 127 0" result="hardAlpha"/>
<feOffset dy="1.6"/>
<feGaussianBlur stdDeviation="3.2"/>
<feComposite in2="hardAlpha" operator="out"/>
<feColorMatrix type="matrix" values="0 0 0 0 0 0 0 0 0 0 0 0 0 0 0 0 0 0 0.25 0"/>
<feBlend mode="normal" in2="BackgroundImageFix" result="effect1_dropShadow_444_1513"/>
<feBlend mode="normal" in="SourceGraphic" in2="effect1_dropShadow_444_1513" result="shape"/>
<feColorMatrix in="SourceAlpha" type="matrix" values="0 0 0 0 0 0 0 0 0 0 0 0 0 0 0 0 0 0 127 0" result="hardAlpha"/>
<feOffset dy="3.2"/>
<feGaussianBlur stdDeviation="1.6"/>
<feComposite in2="hardAlpha" operator="arithmetic" k2="-1" k3="1"/>
<feColorMatrix type="matrix" values="0 0 0 0 1 0 0 0 0 1 0 0 0 0 1 0 0 0 0.25 0"/>
<feBlend mode="normal" in2="shape" result="effect2_innerShadow_444_1513"/>
</filter>
<filter id="filter2_ii_444_1513" x="66.6846" y="38.1681" width="38.6709" height="26.3845" filterUnits="userSpaceOnUse" color-interpolation-filters="sRGB">
<feFlood flood-opacity="0" result="BackgroundImageFix"/>
<feBlend mode="normal" in="SourceGraphic" in2="BackgroundImageFix" result="shape"/>
<feColorMatrix in="SourceAlpha" type="matrix" values="0 0 0 0 0 0 0 0 0 0 0 0 0 0 0 0 0 0 127 0" result="hardAlpha"/>
<feOffset dy="-1.6"/>
<feGaussianBlur stdDeviation="1.6"/>
<feComposite in2="hardAlpha" operator="arithmetic" k2="-1" k3="1"/>
<feColorMatrix type="matrix" values="0 0 0 0 0 0 0 0 0 0 0 0 0 0 0 0 0 0 0.02 0"/>
<feBlend mode="normal" in2="shape" result="effect1_innerShadow_444_1513"/>
<feColorMatrix in="SourceAlpha" type="matrix" values="0 0 0 0 0 0 0 0 0 0 0 0 0 0 0 0 0 0 127 0" result="hardAlpha"/>
<feOffset dy="3.2"/>
<feGaussianBlur stdDeviation="1.6"/>
<feComposite in2="hardAlpha" operator="arithmetic" k2="-1" k3="1"/>
<feColorMatrix type="matrix" values="0 0 0 0 1 0 0 0 0 1 0 0 0 0 1 0 0 0 0.25 0"/>
<feBlend mode="normal" in2="effect1_innerShadow_444_1513" result="effect2_innerShadow_444_1513"/>
</filter>
<filter id="filter3_f_444_1513" x="59.4881" y="48.0877" width="12.8002" height="12.8002" filterUnits="userSpaceOnUse" color-interpolation-filters="sRGB">
<feFlood flood-opacity="0" result="BackgroundImageFix"/>
<feBlend mode="normal" in="SourceGraphic" in2="BackgroundImageFix" result="shape"/>
<feGaussianBlur stdDeviation="2.4" result="effect1_foregroundBlur_444_1513"/>
</filter>
<filter id="filter4_f_444_1513" x="68.1219" y="38.8587" width="17.7797" height="15.5619" filterUnits="userSpaceOnUse" color-interpolation-filters="sRGB">
<feFlood flood-opacity="0" result="BackgroundImageFix"/>
<feBlend mode="normal" in="SourceGraphic" in2="BackgroundImageFix" result="shape"/>
<feGaussianBlur stdDeviation="2.4" result="effect1_foregroundBlur_444_1513"/>
</filter>
<filter id="filter5_di_444_1513" x="15.9787" y="35.7001" width="71.6124" height="43.1998" filterUnits="userSpaceOnUse" color-interpolation-filters="sRGB">
<feFlood flood-opacity="0" result="BackgroundImageFix"/>
<feColorMatrix in="SourceAlpha" type="matrix" values="0 0 0 0 0 0 0 0 0 0 0 0 0 0 0 0 0 0 127 0" result="hardAlpha"/>
<feOffset dy="1.8"/>
<feGaussianBlur stdDeviation="3.60001"/>
<feComposite in2="hardAlpha" operator="out"/>
<feColorMatrix type="matrix" values="0 0 0 0 0 0 0 0 0 0 0 0 0 0 0 0 0 0 0.25 0"/>
<feBlend mode="normal" in2="BackgroundImageFix" result="effect1_dropShadow_444_1513"/>
<feBlend mode="normal" in="SourceGraphic" in2="effect1_dropShadow_444_1513" result="shape"/>
<feColorMatrix in="SourceAlpha" type="matrix" values="0 0 0 0 0 0 0 0 0 0 0 0 0 0 0 0 0 0 127 0" result="hardAlpha"/>
<feOffset dy="3.60001"/>
<feGaussianBlur stdDeviation="1.8"/>
<feComposite in2="hardAlpha" operator="arithmetic" k2="-1" k3="1"/>
<feColorMatrix type="matrix" values="0 0 0 0 1 0 0 0 0 1 0 0 0 0 1 0 0 0 0.25 0"/>
<feBlend mode="normal" in2="shape" result="effect2_innerShadow_444_1513"/>
</filter>
<filter id="filter6_ii_444_1513" x="29.6553" y="39.3001" width="44.2627" height="28.7999" filterUnits="userSpaceOnUse" color-interpolation-filters="sRGB">
<feFlood flood-opacity="0" result="BackgroundImageFix"/>
<feBlend mode="normal" in="SourceGraphic" in2="BackgroundImageFix" result="shape"/>
<feColorMatrix in="SourceAlpha" type="matrix" values="0 0 0 0 0 0 0 0 0 0 0 0 0 0 0 0 0 0 127 0" result="hardAlpha"/>
<feOffset dy="-1.8"/>
<feGaussianBlur stdDeviation="1.8"/>
<feComposite in2="hardAlpha" operator="arithmetic" k2="-1" k3="1"/>
<feColorMatrix type="matrix" values="0 0 0 0 0 0 0 0 0 0 0 0 0 0 0 0 0 0 0.02 0"/>
<feBlend mode="normal" in2="shape" result="effect1_innerShadow_444_1513"/>
<feColorMatrix in="SourceAlpha" type="matrix" values="0 0 0 0 0 0 0 0 0 0 0 0 0 0 0 0 0 0 127 0" result="hardAlpha"/>
<feOffset dy="3.60001"/>
<feGaussianBlur stdDeviation="1.8"/>
<feComposite in2="hardAlpha" operator="arithmetic" k2="-1" k3="1"/>
<feColorMatrix type="matrix" values="0 0 0 0 1 0 0 0 0 1 0 0 0 0 1 0 0 0 0.25 0"/>
<feBlend mode="normal" in2="effect1_innerShadow_444_1513" result="effect2_innerShadow_444_1513"/>
</filter>
<filter id="filter7_f_444_1513" x="28.7357" y="41.2724" width="18.9231" height="18.7805" filterUnits="userSpaceOnUse" color-interpolation-filters="sRGB">
<feFlood flood-opacity="0" result="BackgroundImageFix"/>
<feBlend mode="normal" in="SourceGraphic" in2="BackgroundImageFix" result="shape"/>
<feGaussianBlur stdDeviation="2.7" result="effect1_foregroundBlur_444_1513"/>
</filter>
<filter id="filter8_f_444_1513" x="21.224" y="53.5458" width="14.4001" height="14.3996" filterUnits="userSpaceOnUse" color-interpolation-filters="sRGB">
<feFlood flood-opacity="0" result="BackgroundImageFix"/>
<feBlend mode="normal" in="SourceGraphic" in2="BackgroundImageFix" result="shape"/>
<feGaussianBlur stdDeviation="2.7" result="effect1_foregroundBlur_444_1513"/>
</filter>
<filter id="filter9_di_444_1513" x="36.7866" y="46.5" width="79.5693" height="48" filterUnits="userSpaceOnUse" color-interpolation-filters="sRGB">
<feFlood flood-opacity="0" result="BackgroundImageFix"/>
<feColorMatrix in="SourceAlpha" type="matrix" values="0 0 0 0 0 0 0 0 0 0 0 0 0 0 0 0 0 0 127 0" result="hardAlpha"/>
<feOffset dy="2"/>
<feGaussianBlur stdDeviation="4"/>
<feComposite in2="hardAlpha" operator="out"/>
<feColorMatrix type="matrix" values="0 0 0 0 0 0 0 0 0 0 0 0 0 0 0 0 0 0 0.25 0"/>
<feBlend mode="normal" in2="BackgroundImageFix" result="effect1_dropShadow_444_1513"/>
<feBlend mode="normal" in="SourceGraphic" in2="effect1_dropShadow_444_1513" result="shape"/>
<feColorMatrix in="SourceAlpha" type="matrix" values="0 0 0 0 0 0 0 0 0 0 0 0 0 0 0 0 0 0 127 0" result="hardAlpha"/>
<feOffset dy="4"/>
<feGaussianBlur stdDeviation="2"/>
<feComposite in2="hardAlpha" operator="arithmetic" k2="-1" k3="1"/>
<feColorMatrix type="matrix" values="0 0 0 0 1 0 0 0 0 1 0 0 0 0 1 0 0 0 0.25 0"/>
<feBlend mode="normal" in2="shape" result="effect2_innerShadow_444_1513"/>
</filter>
<filter id="filter10_ii_444_1513" x="51.9824" y="50.5" width="49.1807" height="32" filterUnits="userSpaceOnUse" color-interpolation-filters="sRGB">
<feFlood flood-opacity="0" result="BackgroundImageFix"/>
<feBlend mode="normal" in="SourceGraphic" in2="BackgroundImageFix" result="shape"/>
<feColorMatrix in="SourceAlpha" type="matrix" values="0 0 0 0 0 0 0 0 0 0 0 0 0 0 0 0 0 0 127 0" result="hardAlpha"/>
<feOffset dy="-2"/>
<feGaussianBlur stdDeviation="2"/>
<feComposite in2="hardAlpha" operator="arithmetic" k2="-1" k3="1"/>
<feColorMatrix type="matrix" values="0 0 0 0 0 0 0 0 0 0 0 0 0 0 0 0 0 0 0.02 0"/>
<feBlend mode="normal" in2="shape" result="effect1_innerShadow_444_1513"/>
<feColorMatrix in="SourceAlpha" type="matrix" values="0 0 0 0 0 0 0 0 0 0 0 0 0 0 0 0 0 0 127 0" result="hardAlpha"/>
<feOffset dy="4"/>
<feGaussianBlur stdDeviation="2"/>
<feComposite in2="hardAlpha" operator="arithmetic" k2="-1" k3="1"/>
<feColorMatrix type="matrix" values="0 0 0 0 1 0 0 0 0 1 0 0 0 0 1 0 0 0 0.25 0"/>
<feBlend mode="normal" in2="effect1_innerShadow_444_1513" result="effect2_innerShadow_444_1513"/>
</filter>
<filter id="filter11_f_444_1513" x="43.8281" y="67.3281" width="16" height="16" filterUnits="userSpaceOnUse" color-interpolation-filters="sRGB">
<feFlood flood-opacity="0" result="BackgroundImageFix"/>
<feBlend mode="normal" in="SourceGraphic" in2="BackgroundImageFix" result="shape"/>
<feGaussianBlur stdDeviation="3" result="effect1_foregroundBlur_444_1513"/>
</filter>
<filter id="filter12_f_444_1513" x="53.1748" y="52.6914" width="21.0259" height="20.8672" filterUnits="userSpaceOnUse" color-interpolation-filters="sRGB">
<feFlood flood-opacity="0" result="BackgroundImageFix"/>
<feBlend mode="normal" in="SourceGraphic" in2="BackgroundImageFix" result="shape"/>
<feGaussianBlur stdDeviation="3" result="effect1_foregroundBlur_444_1513"/>
</filter>
<linearGradient id="paint0_linear_444_1513" x1="68" y1="52.5" x2="68" y2="92.5" gradientUnits="userSpaceOnUse">
<stop stop-color="#EDC330"/>
<stop offset="1" stop-color="#FDE17E"/>
</linearGradient>
</defs>
</svg>
