<svg width="24" height="24" viewBox="0 0 24 24" fill="none" xmlns="http://www.w3.org/2000/svg">
<path fill-rule="evenodd" clip-rule="evenodd" d="M7 7C6.44772 7 6 7.44772 6 8V19C6 19.5523 6.44772 20 7 20H14C14.5523 20 15 19.5523 15 19V8C15 7.44772 14.5523 7 14 7H7ZM9 9C8.44772 9 8 9.44772 8 10V17C8 17.5523 8.44772 18 9 18H12C12.5523 18 13 17.5523 13 17V10C13 9.44772 12.5523 9 12 9H9Z" fill="#A9ADB9"/>
<path fill-rule="evenodd" clip-rule="evenodd" d="M8 5C8 4.44772 8.44772 4 9 4H17C17.5523 4 18 4.44772 18 5V15C18 15.5523 17.5523 16 17 16V16C16.4477 16 16 15.5523 16 15V14V7C16 6.44772 15.5523 6 15 6H10H9C8.44772 6 8 5.55228 8 5V5Z" fill="#A9ADB9"/>
</svg>
