<svg width="64" height="64" viewBox="0 0 64 64" fill="none" xmlns="http://www.w3.org/2000/svg">
<path d="M12.5594 10.6904C15.9979 8.83905 28.9727 18.9227 40.5594 24.6905C50.251 29.5149 62.5929 38.6408 58.0594 46.1905C51.5131 57.092 37.0352 54.1903 25.5594 48.1905C16.0155 43.2007 4.03208 31.6903 5.03124 26.6903C5.53015 24.1936 10.0594 21.6905 10.0594 21.6905C10.0594 21.6905 6.05939 14.1903 12.5594 10.6904Z" fill="url(#paint0_linear_1601_7405)"/>
<path fill-rule="evenodd" clip-rule="evenodd" d="M54.0022 33.1217C53.3625 32.9734 52.5761 32.6007 51.6452 31.9676C45.2683 27.6305 39.0729 25.5652 33.8429 23.8218C28.8235 22.1486 24.6933 20.7718 22.1452 17.9676C22.0561 17.8695 21.9642 17.7685 21.8697 17.6646C18.4984 13.9588 11.8121 6.60922 11.124 0.562183C14.1027 1.65807 18.3343 4.22242 23.0146 7.05859C27.0433 9.49995 31.4044 12.1427 35.5848 14.2237C44.1851 18.5048 54.8724 26.1733 54.0022 33.1217Z" fill="url(#paint1_linear_1601_7405)"/>
<defs>
<linearGradient id="paint0_linear_1601_7405" x1="6.53516" y1="47.6903" x2="19.5193" y2="42.8391" gradientUnits="userSpaceOnUse">
<stop stop-color="#FF92C1"/>
<stop offset="1" stop-color="#FED2E5"/>
</linearGradient>
<linearGradient id="paint1_linear_1601_7405" x1="33.0589" y1="7.99082" x2="24.0676" y2="19.9609" gradientUnits="userSpaceOnUse">
<stop stop-color="#FFBEDA"/>
<stop offset="1" stop-color="#FF92C1"/>
</linearGradient>
</defs>
</svg>
