<svg width="64" height="64" viewBox="0 0 64 64" fill="none" xmlns="http://www.w3.org/2000/svg">
<path d="M11.4023 42.2454C18.4023 35.2454 16.0796 29.1566 20.9023 23.7454C26.2731 17.7193 34.4252 7.93315 42.9023 10.2451C45.0037 10.8182 45.8446 12.5965 46.1804 13.8692C46.3552 14.5318 47.0741 15.0125 47.7384 14.8442C49.3601 14.4331 52.0457 14.0121 53.4023 15.2454C58.9023 20.2451 56.2102 27.9571 53.4023 35.2454C50.0256 44.0104 44.7684 48.6439 35.9023 51.7454C28.7143 54.26 23.0515 55.4575 16.4023 51.7454C11.6868 49.1128 7.40234 41.2454 7.40234 41.2454C7.40234 41.2454 10.2638 43.384 11.4023 42.2454Z" fill="url(#paint0_linear_1601_7398)"/>
<path fill-rule="evenodd" clip-rule="evenodd" d="M7.48438 41.304C7.63035 41.4075 7.96141 41.6341 8.37958 41.868C10.3559 43.7853 14.9765 48.036 18.9033 49.8983C25.3422 52.9522 41.9033 48.8985 41.9033 48.8985L41.1284 49.5119C39.5414 50.344 37.8054 51.0799 35.9033 51.7453C28.7152 54.2599 23.0524 55.4574 16.4033 51.7453C12.1264 49.3576 8.20414 42.6638 7.51139 41.439L7.48438 41.304Z" fill="url(#paint1_linear_1601_7398)"/>
<defs>
<linearGradient id="paint0_linear_1601_7398" x1="50.9023" y1="16.3984" x2="37.4023" y2="29.8984" gradientUnits="userSpaceOnUse">
<stop stop-color="#FF92C1"/>
<stop offset="1" stop-color="#FED2E5"/>
</linearGradient>
<linearGradient id="paint1_linear_1601_7398" x1="30.4023" y1="45.3984" x2="14.9023" y2="53.8984" gradientUnits="userSpaceOnUse">
<stop stop-color="#FF98C3"/>
<stop offset="1" stop-color="#FF94C1"/>
</linearGradient>
</defs>
</svg>
