<svg width="24" height="24" viewBox="0 0 24 24" fill="none" xmlns="http://www.w3.org/2000/svg">
<path d="M11.2867 4.19529C11.5112 3.5043 12.4888 3.5043 12.7133 4.19529L14.0768 8.39159C14.1772 8.70061 14.4651 8.90983 14.79 8.90983H19.2023C19.9288 8.90983 20.2309 9.83954 19.6431 10.2666L16.0736 12.8601C15.8107 13.051 15.7007 13.3896 15.8011 13.6986L17.1646 17.8949C17.3891 18.5859 16.5982 19.1605 16.0104 18.7334L12.4408 16.1399C12.178 15.949 11.822 15.949 11.5592 16.1399L7.98957 18.7334C7.40179 19.1605 6.61093 18.5859 6.83544 17.8949L8.1989 13.6986C8.29931 13.3896 8.18931 13.051 7.92645 12.8601L4.35686 10.2666C3.76907 9.83954 4.07115 8.90983 4.7977 8.90983H9.20995C9.53487 8.90983 9.82284 8.70061 9.92325 8.39159L11.2867 4.19529Z" fill="#408CFF"/>
<path d="M11.2867 4.19529C11.5112 3.5043 12.4888 3.5043 12.7133 4.19529L14.0768 8.39159C14.1772 8.70061 14.4651 8.90983 14.79 8.90983H19.2023C19.9288 8.90983 20.2309 9.83954 19.6431 10.2666L16.0736 12.8601C15.8107 13.051 15.7007 13.3896 15.8011 13.6986L17.1646 17.8949C17.3891 18.5859 16.5982 19.1605 16.0104 18.7334L12.4408 16.1399C12.178 15.949 11.822 15.949 11.5592 16.1399L7.98957 18.7334C7.40179 19.1605 6.61093 18.5859 6.83544 17.8949L8.1989 13.6986C8.29931 13.3896 8.18931 13.051 7.92645 12.8601L4.35686 10.2666C3.76907 9.83954 4.07115 8.90983 4.7977 8.90983H9.20995C9.53487 8.90983 9.82284 8.70061 9.92325 8.39159L11.2867 4.19529Z" fill="#A9ADB9"/>
</svg>
