<svg width="24" height="24" viewBox="0 0 24 24" fill="none" xmlns="http://www.w3.org/2000/svg">
<path fill-rule="evenodd" clip-rule="evenodd" d="M17.6566 6.34313C17.266 5.9526 16.6329 5.9526 16.2423 6.34313L11.9996 10.5858L7.75691 6.34314C7.36639 5.95261 6.73322 5.95261 6.3427 6.34314C5.95217 6.73366 5.95217 7.36683 6.3427 7.75735L10.5854 12.0001L6.34285 16.2426C5.95232 16.6331 5.95232 17.2663 6.34285 17.6568C6.73337 18.0474 7.36654 18.0474 7.75706 17.6568L11.9996 13.4143L16.2422 17.6568C16.6327 18.0474 17.2659 18.0474 17.6564 17.6568C18.0469 17.2663 18.0469 16.6332 17.6564 16.2426L13.4138 12.0001L17.6566 7.75734C18.0471 7.36681 18.0471 6.73365 17.6566 6.34313Z" fill="#A9ADB9"/>
</svg>
