<svg width="32" height="32" viewBox="0 0 32 32" fill="none" xmlns="http://www.w3.org/2000/svg">
<path d="M16.4706 11.944C16.4706 11.5488 16.7016 11.1915 17.0655 11.0375C18.2826 10.5225 21.0332 9.41176 22.1176 9.41176V9.41176C23.1572 9.41176 24 10.2545 24 11.2941V19.1443C24 20.0621 23.3754 20.862 22.4851 21.0846L17.0919 22.4329C16.7763 22.5118 16.4706 22.2731 16.4706 21.9478V11.944Z" fill="white"/>
<path d="M8 11.2941C8 10.2545 8.84277 9.41176 9.88235 9.41174V9.41174C11.1755 9.41172 13.7979 10.5148 14.9568 11.0321C15.3091 11.1894 15.5294 11.54 15.5294 11.9258V21.9478C15.5294 22.2731 15.2237 22.5118 14.9081 22.4329L9.51493 21.0846C8.6246 20.862 8 20.0621 8 19.1443V11.2941Z" fill="white"/>
</svg>
