<svg width="32" height="32" viewBox="0 0 32 32" fill="none" xmlns="http://www.w3.org/2000/svg">
<g id="Group 14">
<rect id="Rectangle 248" width="32" height="32" rx="8" fill="#408CFF"/>
<path id="Rectangle 270" d="M16.4707 11.9441C16.4707 11.5489 16.7017 11.1916 17.0656 11.0376C18.2827 10.5226 21.0333 9.41187 22.1178 9.41187V9.41187C23.1574 9.41187 24.0001 10.2546 24.0001 11.2942V19.1444C24.0001 20.0622 23.3755 20.8621 22.4852 21.0847L17.092 22.433C16.7764 22.5119 16.4707 22.2732 16.4707 21.9479V11.9441Z" fill="white"/>
<path id="Rectangle 269" d="M8 11.294C8 10.2544 8.84277 9.41164 9.88235 9.41162V9.41162C11.1755 9.41159 13.7979 10.5146 14.9568 11.032C15.3091 11.1893 15.5294 11.5398 15.5294 11.9257V21.9477C15.5294 22.273 15.2237 22.5117 14.9081 22.4328L9.51493 21.0845C8.6246 20.8619 8 20.0619 8 19.1442V11.294Z" fill="white"/>
</g>
</svg>
