<svg width="96" height="96" viewBox="0 0 96 96" fill="none" xmlns="http://www.w3.org/2000/svg">
<mask id="path-1-inside-1_575_1211" fill="white">
<path d="M91.2 48C93.851 48 96.0249 45.8456 95.7602 43.2079C95.0829 36.457 92.9798 29.9072 89.5692 24C85.3563 16.7031 79.2969 10.6437 72 6.43078C64.7031 2.2179 56.4258 -3.68302e-07 48 0C41.1789 2.9816e-07 34.4551 1.45356 28.27 4.24241C25.8533 5.33207 25.0745 8.2919 26.4 10.5877V10.5877C27.7255 12.8835 30.6528 13.6392 33.096 12.6103C37.7989 10.6297 42.865 9.6 48 9.6C54.7406 9.6 61.3625 11.3743 67.2 14.7446C73.0375 18.1149 77.8851 22.9625 81.2554 28.8C83.8229 33.247 85.4642 38.1493 86.1004 43.2124C86.4309 45.8427 88.549 48 91.2 48V48Z"/>
</mask>
<path d="M91.2 48C93.851 48 96.0249 45.8456 95.7602 43.2079C95.0829 36.457 92.9798 29.9072 89.5692 24C85.3563 16.7031 79.2969 10.6437 72 6.43078C64.7031 2.2179 56.4258 -3.68302e-07 48 0C41.1789 2.9816e-07 34.4551 1.45356 28.27 4.24241C25.8533 5.33207 25.0745 8.2919 26.4 10.5877V10.5877C27.7255 12.8835 30.6528 13.6392 33.096 12.6103C37.7989 10.6297 42.865 9.6 48 9.6C54.7406 9.6 61.3625 11.3743 67.2 14.7446C73.0375 18.1149 77.8851 22.9625 81.2554 28.8C83.8229 33.247 85.4642 38.1493 86.1004 43.2124C86.4309 45.8427 88.549 48 91.2 48V48Z" stroke="#408CFF" stroke-width="32" mask="url(#path-1-inside-1_575_1211)"/>
</svg>
