<svg width="32" height="36" viewBox="0 0 32 36" fill="none" xmlns="http://www.w3.org/2000/svg">
<g filter="url(#filter0_ddii_56_1416)">
<path fill-rule="evenodd" clip-rule="evenodd" d="M21.145 3.31994C20.6763 2.57002 15.192 2.14817 14.981 3.31994C14.8603 3.99033 14.9393 6.37778 15.0572 8.89379C15.0129 11.5514 14.7679 15.619 13.8183 19.3043C13.0987 22.0971 11.4992 25.4493 10.2056 28.1602C8.89363 30.9098 7.89637 32.9997 8.45108 33.1776C9.55269 33.531 13.3261 33.4371 14.6573 33.1793C15.2101 33.0722 15.834 30.1091 15.834 30.1091L16.5325 27.6752C16.5767 28.1392 16.6167 28.5738 16.654 28.9788C16.9126 31.787 17.0408 33.1793 17.5604 33.1793C17.6987 33.1793 18.0155 33.1948 18.436 33.2154C20.1496 33.2991 23.5869 33.467 23.6998 33.0153C23.7522 32.806 23.4251 31.5424 22.9756 29.806C22.2176 26.8775 21.1114 22.6038 20.8898 19.7731C20.5955 15.6412 20.5518 12.2328 20.6763 9.43713C20.7471 7.92186 20.9453 6.70725 21.1009 5.75426C21.2969 4.5535 21.4252 3.76809 21.145 3.31994Z" fill="url(#paint0_linear_56_1416)"/>
</g>
<path fill-rule="evenodd" clip-rule="evenodd" d="M21.145 3.31994C20.6763 2.57002 15.192 2.14817 14.981 3.31994C14.8603 3.99033 14.9393 6.37778 15.0572 8.89379C15.0129 11.5514 14.7679 15.619 13.8183 19.3043C13.0987 22.0971 11.4992 25.4493 10.2056 28.1602C8.89363 30.9098 7.89637 32.9997 8.45108 33.1776C9.55269 33.531 13.3261 33.4371 14.6573 33.1793C15.2101 33.0722 15.834 30.1091 15.834 30.1091L16.5325 27.6752C16.5767 28.1392 16.6167 28.5738 16.654 28.9788C16.9126 31.787 17.0408 33.1793 17.5604 33.1793C17.6987 33.1793 18.0155 33.1948 18.436 33.2154C20.1496 33.2991 23.5869 33.467 23.6998 33.0153C23.7522 32.806 23.4251 31.5424 22.9756 29.806C22.2176 26.8775 21.1114 22.6038 20.8898 19.7731C20.5955 15.6412 20.5518 12.2328 20.6763 9.43713C20.7471 7.92186 20.9453 6.70725 21.1009 5.75426C21.2969 4.5535 21.4252 3.76809 21.145 3.31994Z" fill="url(#paint1_radial_56_1416)" fill-opacity="0.25"/>
<path fill-rule="evenodd" clip-rule="evenodd" d="M21.145 3.31994C20.6763 2.57002 15.192 2.14817 14.981 3.31994C14.8603 3.99033 14.9393 6.37778 15.0572 8.89379C15.0129 11.5514 14.7679 15.619 13.8183 19.3043C13.0987 22.0971 11.4992 25.4493 10.2056 28.1602C8.89363 30.9098 7.89637 32.9997 8.45108 33.1776C9.55269 33.531 13.3261 33.4371 14.6573 33.1793C15.2101 33.0722 15.834 30.1091 15.834 30.1091L16.5325 27.6752C16.5767 28.1392 16.6167 28.5738 16.654 28.9788C16.9126 31.787 17.0408 33.1793 17.5604 33.1793C17.6987 33.1793 18.0155 33.1948 18.436 33.2154C20.1496 33.2991 23.5869 33.467 23.6998 33.0153C23.7522 32.806 23.4251 31.5424 22.9756 29.806C22.2176 26.8775 21.1114 22.6038 20.8898 19.7731C20.5955 15.6412 20.5518 12.2328 20.6763 9.43713C20.7471 7.92186 20.9453 6.70725 21.1009 5.75426C21.2969 4.5535 21.4252 3.76809 21.145 3.31994Z" fill="url(#paint2_radial_56_1416)" fill-opacity="0.25"/>
<path fill-rule="evenodd" clip-rule="evenodd" d="M21.145 3.31994C20.6763 2.57002 15.192 2.14817 14.981 3.31994C14.8603 3.99033 14.9393 6.37778 15.0572 8.89379C15.0129 11.5514 14.7679 15.619 13.8183 19.3043C13.0987 22.0971 11.4992 25.4493 10.2056 28.1602C8.89363 30.9098 7.89637 32.9997 8.45108 33.1776C9.55269 33.531 13.3261 33.4371 14.6573 33.1793C15.2101 33.0722 15.834 30.1091 15.834 30.1091L16.5325 27.6752C16.5767 28.1392 16.6167 28.5738 16.654 28.9788C16.9126 31.787 17.0408 33.1793 17.5604 33.1793C17.6987 33.1793 18.0155 33.1948 18.436 33.2154C20.1496 33.2991 23.5869 33.467 23.6998 33.0153C23.7522 32.806 23.4251 31.5424 22.9756 29.806C22.2176 26.8775 21.1114 22.6038 20.8898 19.7731C20.5955 15.6412 20.5518 12.2328 20.6763 9.43713C20.7471 7.92186 20.9453 6.70725 21.1009 5.75426C21.2969 4.5535 21.4252 3.76809 21.145 3.31994Z" fill="url(#paint3_radial_56_1416)" fill-opacity="0.25"/>
<defs>
<filter id="filter0_ddii_56_1416" x="6.60693" y="0.715816" width="18.9734" height="34.5681" filterUnits="userSpaceOnUse" color-interpolation-filters="sRGB">
<feFlood flood-opacity="0" result="BackgroundImageFix"/>
<feColorMatrix in="SourceAlpha" type="matrix" values="0 0 0 0 0 0 0 0 0 0 0 0 0 0 0 0 0 0 127 0" result="hardAlpha"/>
<feOffset dx="-0.1875" dy="0.375001"/>
<feGaussianBlur stdDeviation="0.750002"/>
<feComposite in2="hardAlpha" operator="out"/>
<feColorMatrix type="matrix" values="0 0 0 0 0.0267361 0 0 0 0 0.0914375 0 0 0 0 0.320833 0 0 0 0.25 0"/>
<feBlend mode="normal" in2="BackgroundImageFix" result="effect1_dropShadow_56_1416"/>
<feColorMatrix in="SourceAlpha" type="matrix" values="0 0 0 0 0 0 0 0 0 0 0 0 0 0 0 0 0 0 127 0" result="hardAlpha"/>
<feOffset dx="0.375001" dy="-0.375001"/>
<feGaussianBlur stdDeviation="0.750002"/>
<feComposite in2="hardAlpha" operator="out"/>
<feColorMatrix type="matrix" values="0 0 0 0 0.4875 0 0 0 0 0.6925 0 0 0 0 1 0 0 0 0.5 0"/>
<feBlend mode="normal" in2="effect1_dropShadow_56_1416" result="effect2_dropShadow_56_1416"/>
<feBlend mode="normal" in="SourceGraphic" in2="effect2_dropShadow_56_1416" result="shape"/>
<feColorMatrix in="SourceAlpha" type="matrix" values="0 0 0 0 0 0 0 0 0 0 0 0 0 0 0 0 0 0 127 0" result="hardAlpha"/>
<feOffset dx="-0.375001" dy="0.375001"/>
<feGaussianBlur stdDeviation="0.562501"/>
<feComposite in2="hardAlpha" operator="arithmetic" k2="-1" k3="1"/>
<feColorMatrix type="matrix" values="0 0 0 0 1 0 0 0 0 1 0 0 0 0 1 0 0 0 0.25 0"/>
<feBlend mode="normal" in2="shape" result="effect3_innerShadow_56_1416"/>
<feColorMatrix in="SourceAlpha" type="matrix" values="0 0 0 0 0 0 0 0 0 0 0 0 0 0 0 0 0 0 127 0" result="hardAlpha"/>
<feOffset dx="0.375001" dy="-0.375001"/>
<feGaussianBlur stdDeviation="0.562501"/>
<feComposite in2="hardAlpha" operator="arithmetic" k2="-1" k3="1"/>
<feColorMatrix type="matrix" values="0 0 0 0 0 0 0 0 0 0.109804 0 0 0 0 0.501961 0 0 0 0.25 0"/>
<feBlend mode="normal" in2="effect3_innerShadow_56_1416" result="effect4_innerShadow_56_1416"/>
</filter>
<linearGradient id="paint0_linear_56_1416" x1="12.6773" y1="33.8565" x2="0.256191" y2="17.2708" gradientUnits="userSpaceOnUse">
<stop stop-color="#004EE7"/>
<stop offset="1" stop-color="#04A3FB"/>
</linearGradient>
<radialGradient id="paint1_radial_56_1416" cx="0" cy="0" r="1" gradientUnits="userSpaceOnUse" gradientTransform="translate(19.4507 8.28614) rotate(83.369) scale(19.8909 5.57455)">
<stop stop-color="white"/>
<stop offset="1" stop-color="#04A3FB" stop-opacity="0"/>
</radialGradient>
<radialGradient id="paint2_radial_56_1416" cx="0" cy="0" r="1" gradientUnits="userSpaceOnUse" gradientTransform="translate(19.6382 14.7315) rotate(80.9963) scale(13.4786 3.77746)">
<stop stop-color="white"/>
<stop offset="1" stop-color="#04A3FB" stop-opacity="0"/>
</radialGradient>
<radialGradient id="paint3_radial_56_1416" cx="0" cy="0" r="1" gradientUnits="userSpaceOnUse" gradientTransform="translate(11.4585 28.208) rotate(110.717) scale(7.81802 4.83616)">
<stop stop-color="#00379F"/>
<stop offset="1" stop-color="#04A3FB" stop-opacity="0"/>
</radialGradient>
</defs>
</svg>
