<svg width="32" height="32" viewBox="0 0 32 32" fill="none" xmlns="http://www.w3.org/2000/svg">
<path fill-rule="evenodd" clip-rule="evenodd" d="M24.8099 2.66666H19.4308L6.0975 16H12.7642L25.187 3.57712C25.523 3.24114 25.2851 2.66666 24.8099 2.66666ZM24.8099 29.3333H19.4308L6.0975 16H12.7642L25.187 28.4229C25.523 28.7589 25.2851 29.3333 24.8099 29.3333Z" fill="#98BFFA"/>
<path fill-rule="evenodd" clip-rule="evenodd" d="M12.5693 2.66666H7.19026C6.71511 2.66666 6.47715 3.24114 6.81313 3.57712L12.6668 9.43075L16.0001 6.09741L12.5693 2.66666ZM19.3334 9.43075L16.0001 12.7641L19.236 16H25.9027L19.3334 9.43075ZM12.5693 29.3333H7.19026C6.71511 29.3333 6.47715 28.7589 6.81313 28.4229L19.236 16H25.9027L12.5693 29.3333Z" fill="#408CFF"/>
</svg>
