<svg width="32" height="32" viewBox="0 0 32 32" fill="none" xmlns="http://www.w3.org/2000/svg">
<path fill-rule="evenodd" clip-rule="evenodd" d="M26.8296 0H20.1172L4.11719 16L20.1172 32H26.8296C27.3048 32 27.5427 31.4255 27.2067 31.0895L12.1172 16L27.2067 0.910457C27.5427 0.574476 27.3048 0 26.8296 0Z" fill="#FFC8DC"/>
<path fill-rule="evenodd" clip-rule="evenodd" d="M11.8836 0H5.17114C4.69599 0 4.45803 0.574476 4.79401 0.910457L12.0004 8.11689L16.0004 4.11689L11.8836 0ZM20.0004 8.11689L16.0004 12.1169L19.8835 16L4.794 31.0895C4.45802 31.4255 4.69597 32 5.17112 32H11.8835L27.8836 16L20.0004 8.11689Z" fill="#FF99BE"/>
</svg>
