<svg width="32" height="32" viewBox="0 0 32 32" fill="none" xmlns="http://www.w3.org/2000/svg">
<g clip-path="url(#clip0_259_1435)">
<g filter="url(#filter0_ii_259_1435)">
<path fill-rule="evenodd" clip-rule="evenodd" d="M11.63 2.08751C10.519 1.21767 8.83002 2.19958 8.18002 2.65745C7.5906 3.07265 14.7307 10.931 18.9194 15.4517C14.1138 19.6452 5.08001 27.7724 5.08002 29.6074C5.51 30.3275 9.37 30.1854 10.5332 29.8996C11.3835 29.6907 19.8625 20.8306 23.2693 17.2428C23.3922 17.1133 23.4953 16.9724 23.5788 16.8237C24.1326 16.0847 24.1419 15.0578 23.5488 14.3182C21.4418 11.6909 16.6605 6.02595 11.63 2.08751Z" fill="url(#paint0_linear_259_1435)"/>
<path fill-rule="evenodd" clip-rule="evenodd" d="M11.63 2.08751C10.519 1.21767 8.83002 2.19958 8.18002 2.65745C7.5906 3.07265 14.7307 10.931 18.9194 15.4517C14.1138 19.6452 5.08001 27.7724 5.08002 29.6074C5.51 30.3275 9.37 30.1854 10.5332 29.8996C11.3835 29.6907 19.8625 20.8306 23.2693 17.2428C23.3922 17.1133 23.4953 16.9724 23.5788 16.8237C24.1326 16.0847 24.1419 15.0578 23.5488 14.3182C21.4418 11.6909 16.6605 6.02595 11.63 2.08751Z" fill="url(#paint1_linear_259_1435)" fill-opacity="0.15"/>
</g>
<g filter="url(#filter1_ii_259_1435)">
<path fill-rule="evenodd" clip-rule="evenodd" d="M21.24 2.25759C22.5503 1.31162 25.22 1.84736 25.6 2.55747C25.8617 3.04652 17.8345 11.2415 13.3924 15.719C14.1309 16.443 14.9715 17.2699 15.864 18.1524C14.8461 19.0644 13.7767 20.0361 12.723 21.0155C11.293 19.532 9.98686 18.1628 9.06579 17.1937C8.81149 16.9261 8.64465 16.608 8.56428 16.2737C8.36369 15.6105 8.50662 14.8662 9.00571 14.3191C11.7204 11.3432 18.0042 4.59363 21.24 2.25759ZM16.1941 24.5829C18.9363 27.3686 21.3933 29.7676 21.8469 29.8997C23.7417 30.4511 26.64 30.2775 26.9 29.8997C27.1245 29.5734 23.2468 25.5382 19.21 21.4848C18.2221 22.5085 17.1894 23.5712 16.1941 24.5829Z" fill="url(#paint2_linear_259_1435)"/>
<path fill-rule="evenodd" clip-rule="evenodd" d="M21.24 2.25759C22.5503 1.31162 25.22 1.84736 25.6 2.55747C25.8617 3.04652 17.8345 11.2415 13.3924 15.719C14.1309 16.443 14.9715 17.2699 15.864 18.1524C14.8461 19.0644 13.7767 20.0361 12.723 21.0155C11.293 19.532 9.98686 18.1628 9.06579 17.1937C8.81149 16.9261 8.64465 16.608 8.56428 16.2737C8.36369 15.6105 8.50662 14.8662 9.00571 14.3191C11.7204 11.3432 18.0042 4.59363 21.24 2.25759ZM16.1941 24.5829C18.9363 27.3686 21.3933 29.7676 21.8469 29.8997C23.7417 30.4511 26.64 30.2775 26.9 29.8997C27.1245 29.5734 23.2468 25.5382 19.21 21.4848C18.2221 22.5085 17.1894 23.5712 16.1941 24.5829Z" fill="url(#paint3_linear_259_1435)" fill-opacity="0.15"/>
</g>
<g filter="url(#filter2_f_259_1435)">
<ellipse cx="22.2383" cy="5.49343" rx="0.221396" ry="3.77" transform="rotate(44.2288 22.2383 5.49343)" fill="white"/>
</g>
<g filter="url(#filter3_f_259_1435)">
<ellipse cx="22.9066" cy="15.0741" rx="0.951589" ry="0.292668" transform="rotate(40.0737 22.9066 15.0741)" fill="white"/>
</g>
</g>
<defs>
<filter id="filter0_ii_259_1435" x="-0.0399828" y="-3.38001" width="29.1539" height="36.0729" filterUnits="userSpaceOnUse" color-interpolation-filters="sRGB">
<feFlood flood-opacity="0" result="BackgroundImageFix"/>
<feBlend mode="normal" in="SourceGraphic" in2="BackgroundImageFix" result="shape"/>
<feColorMatrix in="SourceAlpha" type="matrix" values="0 0 0 0 0 0 0 0 0 0 0 0 0 0 0 0 0 0 127 0" result="hardAlpha"/>
<feOffset dx="5.12" dy="-5.12"/>
<feGaussianBlur stdDeviation="6.4"/>
<feComposite in2="hardAlpha" operator="arithmetic" k2="-1" k3="1"/>
<feColorMatrix type="matrix" values="0 0 0 0 0 0 0 0 0 0 0 0 0 0 0 0 0 0 0.1 0"/>
<feBlend mode="normal" in2="shape" result="effect1_innerShadow_259_1435"/>
<feColorMatrix in="SourceAlpha" type="matrix" values="0 0 0 0 0 0 0 0 0 0 0 0 0 0 0 0 0 0 127 0" result="hardAlpha"/>
<feOffset dx="-5.12" dy="2.56"/>
<feGaussianBlur stdDeviation="3.84"/>
<feComposite in2="hardAlpha" operator="arithmetic" k2="-1" k3="1"/>
<feColorMatrix type="matrix" values="0 0 0 0 1 0 0 0 0 1 0 0 0 0 1 0 0 0 0.25 0"/>
<feBlend mode="normal" in2="effect1_innerShadow_259_1435" result="effect2_innerShadow_259_1435"/>
</filter>
<filter id="filter1_ii_259_1435" x="5.91675" y="-3.37073" width="26.1126" height="36.1818" filterUnits="userSpaceOnUse" color-interpolation-filters="sRGB">
<feFlood flood-opacity="0" result="BackgroundImageFix"/>
<feBlend mode="normal" in="SourceGraphic" in2="BackgroundImageFix" result="shape"/>
<feColorMatrix in="SourceAlpha" type="matrix" values="0 0 0 0 0 0 0 0 0 0 0 0 0 0 0 0 0 0 127 0" result="hardAlpha"/>
<feOffset dx="5.12" dy="-5.12"/>
<feGaussianBlur stdDeviation="5.12"/>
<feComposite in2="hardAlpha" operator="arithmetic" k2="-1" k3="1"/>
<feColorMatrix type="matrix" values="0 0 0 0 0 0 0 0 0 0 0 0 0 0 0 0 0 0 0.1 0"/>
<feBlend mode="normal" in2="shape" result="effect1_innerShadow_259_1435"/>
<feColorMatrix in="SourceAlpha" type="matrix" values="0 0 0 0 0 0 0 0 0 0 0 0 0 0 0 0 0 0 127 0" result="hardAlpha"/>
<feOffset dx="-2.56" dy="2.56"/>
<feGaussianBlur stdDeviation="6.4"/>
<feComposite in2="hardAlpha" operator="arithmetic" k2="-1" k3="1"/>
<feColorMatrix type="matrix" values="0 0 0 0 1 0 0 0 0 1 0 0 0 0 1 0 0 0 0.25 0"/>
<feBlend mode="normal" in2="effect1_innerShadow_259_1435" result="effect2_innerShadow_259_1435"/>
</filter>
<filter id="filter2_f_259_1435" x="-5.99624" y="-22.8125" width="56.4691" height="56.6119" filterUnits="userSpaceOnUse" color-interpolation-filters="sRGB">
<feFlood flood-opacity="0" result="BackgroundImageFix"/>
<feBlend mode="normal" in="SourceGraphic" in2="BackgroundImageFix" result="shape"/>
<feGaussianBlur stdDeviation="12.8" result="effect1_foregroundBlur_259_1435"/>
</filter>
<filter id="filter3_f_259_1435" x="-3.44576" y="-11.1784" width="52.7047" height="52.5049" filterUnits="userSpaceOnUse" color-interpolation-filters="sRGB">
<feFlood flood-opacity="0" result="BackgroundImageFix"/>
<feBlend mode="normal" in="SourceGraphic" in2="BackgroundImageFix" result="shape"/>
<feGaussianBlur stdDeviation="12.8" result="effect1_foregroundBlur_259_1435"/>
</filter>
<linearGradient id="paint0_linear_259_1435" x1="14.537" y1="1.73999" x2="14.537" y2="30.1329" gradientUnits="userSpaceOnUse">
<stop stop-color="#94CBFF"/>
<stop offset="0.479167" stop-color="#41A4FF"/>
<stop offset="1" stop-color="#0057FF"/>
</linearGradient>
<linearGradient id="paint1_linear_259_1435" x1="14.9144" y1="8.71751" x2="18.0823" y2="13.8396" gradientUnits="userSpaceOnUse">
<stop stop-color="#001A78" stop-opacity="0"/>
<stop offset="0.526042" stop-color="#000913"/>
<stop offset="1" stop-color="#001A78" stop-opacity="0"/>
</linearGradient>
<linearGradient id="paint2_linear_259_1435" x1="17.693" y1="1.74927" x2="17.693" y2="30.2512" gradientUnits="userSpaceOnUse">
<stop stop-color="#23BDFF"/>
<stop offset="0.53125" stop-color="#408CFF"/>
<stop offset="1" stop-color="#0065FF"/>
</linearGradient>
<linearGradient id="paint3_linear_259_1435" x1="14.7642" y1="20.2674" x2="18.6715" y2="25.9471" gradientUnits="userSpaceOnUse">
<stop stop-color="#001A78" stop-opacity="0"/>
<stop offset="0.333622" stop-color="#001A78"/>
<stop offset="1" stop-color="#001A78" stop-opacity="0"/>
</linearGradient>
<clipPath id="clip0_259_1435">
<rect width="32" height="32" fill="white"/>
</clipPath>
</defs>
</svg>
