<svg width="32" height="32" viewBox="0 0 32 32" fill="none" xmlns="http://www.w3.org/2000/svg">
<g id="Group 15">
<rect id="Rectangle 249" width="32" height="32" rx="8" fill="#408CFF"/>
<path id="Rectangle 266" opacity="0.5" d="M8.72361 18.5528C8.893 18.214 9.23926 18 9.61803 18H22.382C22.7607 18 23.107 18.214 23.2764 18.5528L25.2764 22.5528C25.6088 23.2177 25.1253 24 24.382 24H7.61803C6.87465 24 6.39116 23.2177 6.72361 22.5528L8.72361 18.5528Z" fill="white"/>
<path id="Rectangle 274" d="M12.6823 7.04912C14.3732 5.35826 17.1146 5.35826 18.8055 7.04912V7.04912C20.196 8.43969 20.4696 10.5897 19.553 12.3296C18.9357 13.5014 18.2711 14.8363 17.8156 15.9543C17.3118 17.191 16.7959 18.8194 16.405 20.1426C16.2185 20.7738 15.2693 20.7738 15.0828 20.1426C14.6919 18.8194 14.176 17.191 13.6722 15.9543C13.2167 14.8363 12.5521 13.5014 11.9348 12.3296C11.0182 10.5897 11.2918 8.43969 12.6823 7.04912V7.04912Z" fill="white"/>
<circle id="Ellipse 2" cx="15.7518" cy="10.0572" r="1.59725" fill="#408CFF"/>
</g>
</svg>
