<svg width="12" height="13" viewBox="0 0 12 13" fill="none" xmlns="http://www.w3.org/2000/svg">
<path fill-rule="evenodd" clip-rule="evenodd" d="M8.72874 4.90292C8.80684 4.98102 8.93347 4.98102 9.01158 4.90292L9.43584 4.47865C9.51395 4.40055 9.51395 4.27391 9.43584 4.19581L8.30447 3.06444C8.22637 2.98633 8.09973 2.98633 8.02163 3.06444L7.59737 3.4887C7.51926 3.56681 7.51926 3.69344 7.59737 3.77154L8.72874 4.90292ZM8.02129 5.8929C8.0994 5.81479 8.0994 5.68816 8.02129 5.61005L6.88992 4.47868C6.81182 4.40058 6.68518 4.40058 6.60708 4.47868L2.56444 8.52132C2.52693 8.55883 2.50586 8.6097 2.50586 8.66275V9.79412C2.50586 9.90457 2.5954 9.99412 2.70586 9.99412H3.83723C3.89027 9.99412 3.94114 9.97304 3.97865 9.93554L8.02129 5.8929Z" fill="#A9ADB9"/>
</svg>
