<svg width="128" height="128" viewBox="0 0 128 128" fill="none" xmlns="http://www.w3.org/2000/svg">
<path fill-rule="evenodd" clip-rule="evenodd" d="M64 51.0476C47.438 51.0476 24.3164 47.6442 12.9163 45.7841C9.3056 45.195 6 47.974 6 51.6324V51.9633C6 55.0166 8.47518 57.4917 11.5285 57.4917V57.4917C14.5817 57.4917 17.0569 59.9669 17.0569 63.0202V71.2692C17.0569 77.8965 22.4294 83.2689 29.0566 83.2689H98.9434C105.571 83.2689 110.943 77.8965 110.943 71.2692V63.0202C110.943 59.9669 113.418 57.4917 116.472 57.4917V57.4917C119.525 57.4917 122 55.0166 122 51.9633V51.6324C122 47.974 118.694 45.195 115.084 45.7841C103.684 47.6442 80.562 51.0476 64 51.0476Z" fill="#D9D9D9"/>
<path fill-rule="evenodd" clip-rule="evenodd" d="M100.824 47.9263C103.327 47.5837 104.607 50.1036 102.095 50.3734V50.3734C94.246 51.2163 85.1549 52.2868 80.1111 53.2038C73.4896 54.4076 68.1864 54.231 62.7413 54.0496C58.4707 53.9073 54.1128 53.7621 48.963 54.2778C43.9221 54.7825 37.4878 55.5866 32.3086 56.2653C27.4874 56.897 23.1852 53.1554 23.1852 48.293V48.293C23.1852 47.8034 23.6174 47.4273 24.1021 47.4965C36.1045 49.2098 51.8247 51.0491 64 51.0491C75.1607 51.0491 89.3002 49.5036 100.824 47.9263Z" fill="#F56C53"/>
</svg>
