<svg width="128" height="128" viewBox="0 0 128 128" fill="none" xmlns="http://www.w3.org/2000/svg">
<path d="M14.5 76.1C14.5 75.4925 14.9925 75 15.6 75H112.4C113.008 75 113.5 75.4925 113.5 76.1V76.1C113.5 78.5301 111.53 80.5 109.1 80.5H18.9C16.4699 80.5 14.5 78.5301 14.5 76.1V76.1Z" fill="#727272"/>
<path d="M24.127 78.3C24.127 76.4775 25.6044 75 27.427 75H100.577C102.399 75 103.877 76.4775 103.877 78.3V78.3C103.877 85.5902 97.9671 91.5 90.677 91.5H37.327C30.0368 91.5 24.127 85.5902 24.127 78.3V78.3Z" fill="#727272"/>
<rect x="61.251" y="36.5" width="5.5" height="16.5" rx="2.75" fill="#D9D9D9"/>
<rect x="85.3911" y="63.0005" width="5.5" height="16.5" rx="2.75" transform="rotate(-135 85.3911 63.0005)" fill="#D9D9D9"/>
<rect x="46.5" y="59.1108" width="5.5" height="16.5" rx="2.75" transform="rotate(135 46.5 59.1108)" fill="#D9D9D9"/>
</svg>
