<svg width="128" height="128" viewBox="0 0 128 128" fill="none" xmlns="http://www.w3.org/2000/svg">
<path fill-rule="evenodd" clip-rule="evenodd" d="M31.7661 67.1531C28.9457 64.1971 25.5351 60.6227 22.7147 57.6667V57.6667C18.9654 53.7373 19.1112 47.5122 23.0401 43.7626C26.9691 40.0129 33.1935 40.1587 36.9427 44.0881V44.0881C37.949 45.1427 40.5225 45.1989 41.577 44.1925V44.1925C45.506 40.4429 51.7304 40.5886 55.4796 44.518C59.2288 48.4474 59.0831 54.6725 55.1542 58.4222V58.4222C52.1989 61.2425 48.624 64.6583 45.6688 67.4786V67.4786C41.7398 71.2283 35.5154 71.0825 31.7661 67.1531V67.1531Z" fill="#23C647"/>
<path fill-rule="evenodd" clip-rule="evenodd" d="M81.8508 63.4107C81.8663 62.9342 82.3567 62.5881 82.8054 62.7491C84.3762 63.313 86.1163 63.6535 87.9539 63.7132C95.1912 63.9483 101.201 59.7382 101.377 54.3097C101.554 48.8812 95.8296 44.2899 88.5923 44.0548C81.3551 43.8197 75.3452 48.0298 75.1689 53.4583V53.4583C75.164 53.6108 75.0143 53.7194 74.8683 53.6753C74.0659 53.4333 73.2192 53.2907 72.3418 53.2622C66.9139 53.0859 62.3708 57.3437 62.1945 62.7722C62.0182 68.2007 66.2755 72.7443 71.7034 72.9206C77.1314 73.0969 81.6745 68.8392 81.8508 63.4107V63.4107Z" fill="#1EE54A"/>
<path fill-rule="evenodd" clip-rule="evenodd" d="M7.91401 47.584C6.30472 47.584 5.00012 48.8886 5.00012 50.4979C5.00012 62.1325 13.5236 71.7764 24.667 73.5258V73.832C24.667 81.0734 30.5373 86.9438 37.7788 86.9438H90.2216C97.4631 86.9438 103.333 81.0734 103.333 73.832V73.5258C114.477 71.7763 123 62.1325 123 50.4979C123 48.8886 121.696 47.584 120.086 47.584H7.91401Z" fill="#D9D9D9"/>
<path d="M48.3655 48.154C44.3333 51.4322 38.5323 49.3222 38.5323 46.5328C38.5323 43.7434 42.9348 41.4822 48.3655 41.4822C53.7962 41.4823 58.5 43.7106 58.5 46.5C58.5 49.5 52.3977 44.8758 48.3655 48.154Z" fill="#23C647"/>
<path d="M92.4074 50.8839C91.3148 48.6985 86.3507 47.9751 86.3982 46.513C86.4456 45.0509 89.1444 44.3932 91.6461 44.4744C94.1479 44.5557 97.8703 47.6057 97.8703 47.6057C97.8703 47.6057 94.2667 54.6028 92.4074 50.8839Z" fill="#1EE54A"/>
</svg>
