<svg width="72" height="72" viewBox="0 0 72 72" fill="none" xmlns="http://www.w3.org/2000/svg">
<path d="M0 44.8C0 44.3582 0.358172 44 0.8 44H71.2C71.6418 44 72 44.3582 72 44.8V44.8C72 46.5673 70.5673 48 68.8 48H3.2C1.43268 48 0 46.5673 0 44.8V44.8Z" fill="#727272"/>
<path d="M0.8 44.5H71.2C71.3657 44.5 71.5 44.6343 71.5 44.8C71.5 46.2912 70.2912 47.5 68.8 47.5H3.2C1.70883 47.5 0.5 46.2912 0.5 44.8C0.5 44.6343 0.634315 44.5 0.8 44.5Z" stroke="black" stroke-opacity="0.1"/>
<path d="M7 46.4C7 45.0745 8.07452 44 9.4 44H62.6C63.9255 44 65 45.0745 65 46.4V46.4C65 51.7019 60.7019 56 55.4 56H16.6C11.2981 56 7 51.7019 7 46.4V46.4Z" fill="#727272"/>
<path d="M9.4 44.5H62.6C63.6493 44.5 64.5 45.3507 64.5 46.4C64.5 51.4258 60.4258 55.5 55.4 55.5H16.6C11.5742 55.5 7.5 51.4258 7.5 46.4C7.5 45.3507 8.35066 44.5 9.4 44.5Z" stroke="black" stroke-opacity="0.1"/>
<rect x="34" y="16" width="4" height="12" rx="2" fill="#D9D9D9"/>
<rect x="34.5" y="16.5" width="3" height="11" rx="1.5" stroke="black" stroke-opacity="0.1"/>
<rect x="51.5562" y="35.2725" width="4" height="12" rx="2" transform="rotate(-135 51.5562 35.2725)" fill="#D9D9D9"/>
<rect x="51.5562" y="34.5654" width="3" height="11" rx="1.5" transform="rotate(-135 51.5562 34.5654)" stroke="black" stroke-opacity="0.1"/>
<rect x="23.272" y="32.4434" width="4" height="12" rx="2" transform="rotate(135 23.272 32.4434)" fill="#D9D9D9"/>
<rect x="22.5649" y="32.4434" width="3" height="11" rx="1.5" transform="rotate(135 22.5649 32.4434)" stroke="black" stroke-opacity="0.1"/>
</svg>
