<svg width="20" height="20" viewBox="0 0 20 20" fill="none" xmlns="http://www.w3.org/2000/svg">
<rect x="4" y="8" width="3" height="1" rx="0.5" fill="#408CFF"/>
<path fill-rule="evenodd" clip-rule="evenodd" d="M6 3C5.44772 3 5 3.44772 5 4V16C5 16.5523 5.44772 17 6 17H14C14.5523 17 15 16.5523 15 16V4C15 3.44772 14.5523 3 14 3H6ZM7.5 5C7.22386 5 7 5.22386 7 5.5C7 5.77614 7.22386 6 7.5 6H12.5C12.7761 6 13 5.77614 13 5.5C13 5.22386 12.7761 5 12.5 5H7.5Z" fill="#408CFF"/>
<rect x="4" y="11" width="3" height="1" rx="0.5" fill="#408CFF"/>
<rect x="4" y="14" width="3" height="1" rx="0.5" fill="#408CFF"/>
</svg>
