<svg width="20" height="20" viewBox="0 0 20 20" fill="none" xmlns="http://www.w3.org/2000/svg">
<path fill-rule="evenodd" clip-rule="evenodd" d="M5 4C5 3.44772 5.44772 3 6 3H14C14.5523 3 15 3.44772 15 4V4.01383V14C15 14.5523 14.5523 15 14 15H6C5.94321 15 5.88753 14.9953 5.83333 14.9862V15C5.83333 15.5523 6.28105 16 6.83333 16H14.8333C14.8901 16 14.9458 15.9953 15 15.9862V16C15 16.5523 14.5523 17 14 17H6C5.44772 17 5 16.5523 5 16V14V4ZM7.5 5.5C7.5 5.22386 7.72386 5 8 5H12C12.2761 5 12.5 5.22386 12.5 5.5C12.5 5.77614 12.2761 6 12 6H8.83334H8C7.72386 6 7.5 5.77614 7.5 5.5Z" fill="#FF99BE"/>
</svg>
