<svg width="20" height="20" viewBox="0 0 20 20" fill="none" xmlns="http://www.w3.org/2000/svg">
<g id="Group 19">
<path id="Rectangle 300" d="M5 5.77252C5 5.29905 5.26751 4.86622 5.69099 4.65448L9 3V17H6.25C5.55964 17 5 16.4404 5 15.75V5.77252Z" fill="#408CFF"/>
<path id="Rectangle 301" d="M15 5.90093C15 5.36289 14.6557 4.88522 14.1453 4.71507L9 3V17H13.75C14.4404 17 15 16.4404 15 15.75V5.90093Z" fill="#98BFFA"/>
<path id="Rectangle 304" d="M13.5 10.3604C13.5 10.1452 13.3623 9.95409 13.1581 9.88604L10.8291 9.10969C10.6672 9.05572 10.5 9.17622 10.5 9.34686V9.63962C10.5 9.85484 10.6377 10.0459 10.8419 10.114L13.1709 10.8903C13.3328 10.9443 13.5 10.8238 13.5 10.6531V10.3604Z" fill="#408CFF"/>
<path id="Rectangle 305" d="M13.5 8.36038C13.5 8.14516 13.3623 7.95409 13.1581 7.88604L10.8291 7.10969C10.6672 7.05572 10.5 7.17622 10.5 7.34686V7.63962C10.5 7.85484 10.6377 8.04591 10.8419 8.11396L13.1709 8.89031C13.3328 8.94428 13.5 8.82378 13.5 8.65314V8.36038Z" fill="#408CFF"/>
<path id="Rectangle 306" d="M13.5 6.36038C13.5 6.14516 13.3623 5.95409 13.1581 5.88604L10.8291 5.10969C10.6672 5.05572 10.5 5.17622 10.5 5.34686V5.63962C10.5 5.85484 10.6377 6.04591 10.8419 6.11396L13.1709 6.89031C13.3328 6.94428 13.5 6.82378 13.5 6.65314V6.36038Z" fill="#408CFF"/>
</g>
</svg>
