<svg width="20" height="20" viewBox="0 0 20 20" fill="none" xmlns="http://www.w3.org/2000/svg">
<g id="Group 18">
<path id="Rectangle 287" d="M5 9.5C5 9.22386 5.22386 9 5.5 9H14.5C14.7761 9 15 9.22386 15 9.5V12.8676C15 13.5701 14.6314 14.2212 14.029 14.5826L11.029 16.3826C10.3956 16.7626 9.60437 16.7626 8.97101 16.3826L5.97101 14.5826C5.3686 14.2212 5 13.5701 5 12.8676V9.5Z" fill="#408CFF"/>
<path id="Rectangle 286" d="M2.6784 8.424C2.36507 8.22817 2.36507 7.77183 2.6784 7.576L9.73502 3.16562C9.89716 3.06429 10.1029 3.06429 10.265 3.16563L17.3216 7.576C17.6349 7.77184 17.6349 8.22816 17.3216 8.424L10.265 12.8344C10.1029 12.9357 9.89716 12.9357 9.73503 12.8344L2.6784 8.424Z" fill="#98BFFA"/>
</g>
</svg>
