<svg width="24" height="24" viewBox="0 0 24 24" fill="none" xmlns="http://www.w3.org/2000/svg">
<path fill-rule="evenodd" clip-rule="evenodd" d="M11 7C11 6.44772 10.5523 6 10 6H8H7C6.44772 6 6 6.44772 6 7V8V16V17C6 17.5523 6.44772 18 7 18H8H16L17 18C17.5523 18 18 17.5523 18 17V16V14C18 13.4477 17.5523 13 17 13V13C16.4477 13 16 13.4477 16 14L16 15C16 15.5523 15.5523 16 15 16H9C8.44772 16 8 15.5523 8 15L8 9C8 8.44772 8.44772 8 9 8H10C10.5523 8 11 7.55228 11 7V7Z" fill="#A9ADB9"/>
<path fill-rule="evenodd" clip-rule="evenodd" d="M12.604 6C12.3813 6 12.2697 6.26929 12.4272 6.42678L13.6667 7.66627L11.134 12.7317C11.0911 12.8176 11.1822 12.9088 11.2682 12.8658L16.3336 10.3331L17.5737 11.5732C17.7312 11.7307 18.0005 11.6192 18.0005 11.3964V6.25C18.0005 6.11193 17.8885 6 17.7505 6H12.604Z" fill="#A9ADB9"/>
</svg>
