<svg width="24" height="24" viewBox="0 0 24 24" fill="none" xmlns="http://www.w3.org/2000/svg">
<path d="M5 11C5 8.79086 6.79086 7 9 7H15C17.2091 7 19 8.79086 19 11V13H5V11Z" fill="#F9D8A6"/>
<path d="M14 12L12.5 8H13.5L15 12H14Z" fill="black" fill-opacity="0.05"/>
<path d="M10 12L11.5 8H10.5L9 12H10Z" fill="black" fill-opacity="0.05"/>
<path d="M19 12L16 8H15L18 12H19Z" fill="black" fill-opacity="0.05"/>
<path d="M5 12L8 8H9L6 12H5Z" fill="black" fill-opacity="0.05"/>
<path fill-rule="evenodd" clip-rule="evenodd" d="M9.00005 7H15.0001C16.06 7 17.0236 7.41227 17.7394 8.08519C17.7897 8.13253 17.8293 8.18722 17.8552 8.2513V8.2513C17.9993 8.60801 17.6336 8.90151 17.2599 8.81001C16.8976 8.72131 16.4252 8.6111 15.8949 8.50084C15.43 8.40418 15.0001 8.76339 15.0001 9.23824V9.5C15.0001 9.77614 14.7762 10 14.5001 10V10C14.2239 10 14.0001 9.77614 14.0001 9.5V9.01761C14.0001 8.52835 13.6404 8.10988 13.1534 8.06236C13.1267 8.05975 13.1 8.05721 13.0733 8.05474C12.4821 8.00002 12.0001 8.48132 12.0001 9.07505V10.5C12.0001 10.7761 11.7762 11 11.5001 11V11C11.2239 11 11.0001 10.7761 11.0001 10.5V9.19222C11.0001 8.57722 10.4727 8.09449 9.86428 8.18439C9.82664 8.18995 9.78901 8.1956 9.75141 8.20133C9.31547 8.26781 9.00006 8.64753 9.00006 9.08851V9.5C9.00006 9.77614 8.77621 10 8.50006 10V10C8.22392 10 8.00006 9.77614 8.00006 9.5V9.33846C8.00006 8.91817 7.61318 8.60428 7.2038 8.69941C7.03508 8.73862 6.87964 8.77587 6.74046 8.80995C6.36678 8.90145 6.00081 8.60801 6.14491 8.2513V8.2513C6.17079 8.18722 6.21036 8.13253 6.26071 8.08519C6.97646 7.41227 7.94011 7 9.00005 7Z" fill="#F56C53"/>
<path fill-rule="evenodd" clip-rule="evenodd" d="M12 12C9.43007 12 5.84228 11.4719 4.07327 11.1832C3.51296 11.0918 3 11.523 3 12.0908V12.0908C3 12.5929 3.40708 13 3.90924 13L4 13C4.55228 13 5 13.4477 5 14V15C5 16.1046 5.89543 17 7 17H17C18.1046 17 19 16.1046 19 15V14C19 13.4477 19.4477 13 20 13L20.0908 13C20.5929 13 21 12.5929 21 12.0908V12.0908C21 11.523 20.487 11.0918 19.9267 11.1832C18.1577 11.4719 14.5699 12 12 12Z" fill="#D9D9D9"/>
</svg>
