<svg width="16" height="16" viewBox="0 0 16 16" fill="none" xmlns="http://www.w3.org/2000/svg">
<path fill-rule="evenodd" clip-rule="evenodd" d="M8 14C11.3137 14 14 11.3137 14 8C14 4.68629 11.3137 2 8 2C4.68629 2 2 4.68629 2 8C2 11.3137 4.68629 14 8 14ZM11.0106 5.14645C11.2059 4.95118 11.5225 4.95118 11.7177 5.14645C11.913 5.34171 11.913 5.65829 11.7177 5.85355L7.4751 10.0962C7.37972 10.1916 7.25541 10.2404 7.13043 10.2426C6.99945 10.2449 6.86771 10.1961 6.76777 10.0962L4.64645 7.97488C4.45118 7.77961 4.45118 7.46303 4.64645 7.26777C4.84171 7.07251 5.15829 7.07251 5.35355 7.26777L7.12143 9.03565L11.0106 5.14645Z" fill="#A9ADB9"/>
</svg>
