<svg width="128" height="128" viewBox="0 0 128 128" fill="none" xmlns="http://www.w3.org/2000/svg">
<rect x="22.9995" y="35" width="6" height="57" fill="#AFAFAF"/>
<rect x="98" y="35" width="6" height="57" fill="#AFAFAF"/>
<g clip-path="url(#clip0_444_1500)">
<path d="M14 38H122V74H14V38Z" fill="#FFC800"/>
<path d="M13.9995 38H22.9995L13.9995 74H4.99951L13.9995 38Z" fill="#353535"/>
<path d="M31.9995 38H40.9995L31.9995 74H22.9995L31.9995 38Z" fill="#353535"/>
<path d="M49.9995 38H58.9995L49.9995 74H40.9995L49.9995 38Z" fill="#353535"/>
<path d="M67.9995 38H76.9995L67.9995 74H58.9995L67.9995 38Z" fill="#353535"/>
<path d="M85.9995 38H94.9995L85.9995 74H76.9995L85.9995 38Z" fill="#353535"/>
<path d="M104 38H113L104 74H94.9995L104 38Z" fill="#353535"/>
</g>
<defs>
<clipPath id="clip0_444_1500">
<path d="M14 38H113V74H14V38Z" fill="white"/>
</clipPath>
</defs>
</svg>
