<svg width="16" height="16" viewBox="0 0 16 16" fill="none" xmlns="http://www.w3.org/2000/svg">
<g filter="url(#filter0_ii_1287_645)">
<path d="M12 7.00006C10.0022 4.40727 2 2.00003 4 4.49994C4.94325 5.67896 5.06862 6.86156 5.05056 7.50536C5.04127 7.83637 4.92405 8.14932 4.7739 8.44446L3.5 10.9485L13.5 10.9485C13.5 10.9485 13.0068 8.30667 12 7.00006Z" fill="url(#paint0_linear_1287_645)"/>
</g>
<path d="M5.21955 8.67118L4.31535 10.4485L12.8775 10.4485C12.82 10.2126 12.7439 9.92283 12.649 9.60903C12.4025 8.7941 12.0483 7.88199 11.6039 7.30524C11.1673 6.73852 10.3641 6.14191 9.38453 5.6019C8.41601 5.06797 7.32285 4.61531 6.35422 4.31826C5.87017 4.16982 5.4247 4.06255 5.04712 4.00256C4.67759 3.94385 4.40492 3.93576 4.23276 3.96053C4.26562 4.01905 4.31587 4.09439 4.39043 4.18758C5.42813 5.48467 5.57069 6.79486 5.55036 7.51938C5.53807 7.95762 5.38399 8.34794 5.21955 8.67118ZM4.10563 3.99235C4.10611 3.99256 4.1099 3.99105 4.11559 3.98722C4.108 3.99023 4.10515 3.99215 4.10563 3.99235Z" stroke="black" stroke-opacity="0.05"/>
<rect width="12" height="4" rx="2" transform="matrix(-1 -8.74228e-08 -8.74228e-08 1 14.5 10)" fill="url(#paint1_linear_1287_645)"/>
<rect x="-0.5" y="0.5" width="11" height="3" rx="1.5" transform="matrix(-1 -8.74228e-08 -8.74228e-08 1 13.5 10)" stroke="black" stroke-opacity="0.05"/>
<rect width="4" height="4" rx="2" transform="matrix(-1 -8.74228e-08 -8.74228e-08 1 5.5 2)" fill="url(#paint2_linear_1287_645)"/>
<rect x="-0.5" y="0.5" width="3" height="3" rx="1.5" transform="matrix(-1 -8.74228e-08 -8.74228e-08 1 4.5 2)" stroke="black" stroke-opacity="0.05"/>
<defs>
<filter id="filter0_ii_1287_645" x="3.5" y="2.44739" width="11" height="9.50116" filterUnits="userSpaceOnUse" color-interpolation-filters="sRGB">
<feFlood flood-opacity="0" result="BackgroundImageFix"/>
<feBlend mode="normal" in="SourceGraphic" in2="BackgroundImageFix" result="shape"/>
<feColorMatrix in="SourceAlpha" type="matrix" values="0 0 0 0 0 0 0 0 0 0 0 0 0 0 0 0 0 0 127 0" result="hardAlpha"/>
<feOffset dx="1" dy="1"/>
<feGaussianBlur stdDeviation="2"/>
<feComposite in2="hardAlpha" operator="arithmetic" k2="-1" k3="1"/>
<feColorMatrix type="matrix" values="0 0 0 0 0 0 0 0 0 0 0 0 0 0 0 0 0 0 0.1 0"/>
<feBlend mode="normal" in2="shape" result="effect1_innerShadow_1287_645"/>
<feColorMatrix in="SourceAlpha" type="matrix" values="0 0 0 0 0 0 0 0 0 0 0 0 0 0 0 0 0 0 127 0" result="hardAlpha"/>
<feOffset dy="-1"/>
<feGaussianBlur stdDeviation="2"/>
<feComposite in2="hardAlpha" operator="arithmetic" k2="-1" k3="1"/>
<feColorMatrix type="matrix" values="0 0 0 0 0 0 0 0 0 0 0 0 0 0 0 0 0 0 0.25 0"/>
<feBlend mode="normal" in2="effect1_innerShadow_1287_645" result="effect2_innerShadow_1287_645"/>
</filter>
<linearGradient id="paint0_linear_1287_645" x1="8.5" y1="3.44739" x2="8.5" y2="10.9485" gradientUnits="userSpaceOnUse">
<stop stop-color="#FF6363"/>
<stop offset="0.375" stop-color="#FF0000"/>
</linearGradient>
<linearGradient id="paint1_linear_1287_645" x1="6" y1="0" x2="6" y2="4" gradientUnits="userSpaceOnUse">
<stop stop-color="#F2F2F2"/>
<stop offset="1" stop-color="white"/>
</linearGradient>
<linearGradient id="paint2_linear_1287_645" x1="2" y1="0" x2="2" y2="4" gradientUnits="userSpaceOnUse">
<stop stop-color="#EDEDED"/>
<stop offset="1" stop-color="white"/>
</linearGradient>
</defs>
</svg>
