<svg width="16" height="16" viewBox="0 0 16 16" fill="none" xmlns="http://www.w3.org/2000/svg">
<path fill-rule="evenodd" clip-rule="evenodd" d="M9.44233 9.43669C9.44147 9.43755 9.44061 9.43841 9.43976 9.43927C7.87766 11.0014 5.345 11.0014 3.7829 9.43927C2.2208 7.87717 2.2208 5.34451 3.7829 3.78241C5.345 2.22032 7.87766 2.22032 9.43976 3.78241C11.001 5.34365 11.0019 7.87439 9.44233 9.43669ZM11.5024 10.0877C13.1723 7.7445 12.9562 4.47042 10.854 2.3682C8.51082 0.0250533 4.71183 0.0250534 2.36869 2.3682C0.0255416 4.71135 0.0255418 8.51033 2.36869 10.8535C4.47092 12.9557 7.745 13.1719 10.0882 11.5019L13.6824 15.0961C14.0729 15.4866 14.7061 15.4866 15.0966 15.0961C15.4871 14.7056 15.4871 14.0724 15.0966 13.6819L11.5024 10.0877Z" fill="#FF99BE"/>
</svg>
