<svg width="32" height="32" viewBox="0 0 32 32" fill="none" xmlns="http://www.w3.org/2000/svg">
<rect width="32" height="32" rx="8" fill="#CECECE"/>
<path fill-rule="evenodd" clip-rule="evenodd" d="M18 5.1548C16.7624 4.44026 15.2376 4.44026 14 5.15479L7.60767 8.84539C6.37006 9.55992 5.60767 10.8804 5.60767 12.3095V19.6907C5.60767 21.1198 6.37006 22.4403 7.60767 23.1548L14 26.8454C15.2376 27.5599 16.7624 27.5599 18 26.8454L24.3923 23.1548C25.6299 22.4403 26.3923 21.1198 26.3923 19.6907V12.3095C26.3923 10.8804 25.6299 9.55992 24.3923 8.84539L18 5.1548ZM16 20.0001C18.2091 20.0001 20 18.2092 20 16.0001C20 13.791 18.2091 12.0001 16 12.0001C13.7908 12.0001 12 13.791 12 16.0001C12 18.2092 13.7908 20.0001 16 20.0001Z" fill="#A0A0A0"/>
</svg>
