<svg width="22" height="24" viewBox="0 0 22 24" fill="none" xmlns="http://www.w3.org/2000/svg">
<g id="Group 16">
<path id="Subtract" fill-rule="evenodd" clip-rule="evenodd" d="M13 1.1548C11.7624 0.440264 10.2376 0.440264 8.99997 1.15479L2.60767 4.84539C1.37006 5.55992 0.607666 6.88043 0.607666 8.3095V15.6907C0.607666 17.1198 1.37006 18.4403 2.60767 19.1548L8.99997 22.8454C10.2376 23.5599 11.7624 23.5599 13 22.8454L19.3923 19.1548C20.6299 18.4403 21.3923 17.1198 21.3923 15.6907V8.3095C21.3923 6.88043 20.6299 5.55992 19.3923 4.84539L13 1.1548ZM11 16.0001C13.2091 16.0001 15 14.2092 15 12.0001C15 9.79096 13.2091 8.00009 11 8.00009C8.79083 8.00009 6.99997 9.79096 6.99997 12.0001C6.99997 14.2092 8.79083 16.0001 11 16.0001Z" fill="#A0A0A0"/>
</g>
</svg>
