<svg width="32" height="32" viewBox="0 0 32 32" fill="none" xmlns="http://www.w3.org/2000/svg">
<rect width="32" height="32" rx="8" fill="#CECECE"/>
<path fill-rule="evenodd" clip-rule="evenodd" d="M17.527 7.88174C16.582 7.33613 15.4176 7.33613 14.4726 7.88174L9.73275 10.6183C8.78773 11.1639 8.20557 12.1722 8.20557 13.2635V18.7366C8.20557 19.8278 8.78773 20.8361 9.73275 21.3817L14.4726 24.1183C15.4176 24.6639 16.582 24.6639 17.527 24.1183L22.2668 21.3817C23.2119 20.8361 23.794 19.8278 23.794 18.7366V13.2635C23.794 12.1722 23.2119 11.1639 22.2668 10.6183L17.527 7.88174ZM15.9999 18.9999C17.6568 18.9999 18.9999 17.6568 18.9999 15.9999C18.9999 14.3431 17.6568 12.9999 15.9999 12.9999C14.3431 12.9999 12.9999 14.3431 12.9999 15.9999C12.9999 17.6568 14.3431 18.9999 15.9999 18.9999Z" fill="#A0A0A0"/>
</svg>
