<svg width="24" height="24" viewBox="0 0 24 24" fill="none" xmlns="http://www.w3.org/2000/svg">
<path fill-rule="evenodd" clip-rule="evenodd" d="M8.69692 11C8.69692 10.3768 8.69692 9.62323 8.69692 9V9C8.69692 8.17157 8.02535 7.5 7.19692 7.5C6.36849 7.5 5.69692 8.17157 5.69692 9V9C5.69692 9.22247 5.41939 9.5 5.19692 9.5V9.5C4.36849 9.5 3.69692 10.1716 3.69692 11C3.69692 11.8284 4.36849 12.5 5.19692 12.5V12.5C5.82015 12.5 6.57369 12.5 7.19692 12.5V12.5C8.02535 12.5 8.69692 11.8284 8.69692 11V11Z" fill="#1EE54A"/>
<path fill-rule="evenodd" clip-rule="evenodd" d="M11.7128 12.0905C12.2761 11.7464 13.0368 11.5 13.6969 11.5V11.5C14.8015 11.5 15.6969 10.8284 15.6969 10C15.6969 9.57141 15.4573 9.1848 15.073 8.91145C14.8071 8.72237 14.6969 8.32621 14.6969 8V8C14.6969 7.17157 13.5776 6.5 12.1969 6.5C10.8162 6.5 9.69692 7.17157 9.69692 8V8C9.69692 8.25496 9.55804 8.55458 9.31397 8.62831C8.36898 8.91376 7.69692 9.64409 7.69692 10.5C7.69692 11.6046 8.81621 12.5 10.1969 12.5C10.7669 12.5 11.2923 12.3474 11.7128 12.0905Z" fill="#23C647"/>
<path fill-rule="evenodd" clip-rule="evenodd" d="M15.44 12.6739C16.113 12.4936 17.0687 12.16 17.7651 12.1815C18.1169 12.1923 18.4992 12.149 18.8883 12.0448C20.2219 11.6874 21.1293 10.7491 20.9149 9.94886C20.7702 9.40886 20.1516 9.06978 19.3548 9.01619C19.1576 9.00292 19.0001 8.837 18.9489 8.64607V8.64607C18.7345 7.84588 17.6958 7.42894 16.6288 7.71482C15.5619 8.00071 14.8708 8.88115 15.0852 9.68135V9.68135C15.091 9.70302 15.0746 9.72466 15.0521 9.72466C14.9238 9.72471 14.7934 9.74136 14.6636 9.77615C13.8634 9.99056 13.3885 10.8131 13.6029 11.6133C13.8173 12.4135 14.6398 12.8883 15.44 12.6739V12.6739Z" fill="#1EE54A"/>
<circle cx="8.69692" cy="11.5" r="2" fill="#FF5A5F"/>
<path fill-rule="evenodd" clip-rule="evenodd" d="M3.14136 11.5C2.8959 11.5 2.69692 11.699 2.69692 11.9444C2.69692 13.9081 4.28879 15.5 6.25247 15.5H5.69692C5.69692 16.6046 6.59235 17.5 7.69692 17.5H15.6969C16.8015 17.5 17.6969 16.6046 17.6969 15.5H17.1414C19.105 15.5 20.6969 13.9081 20.6969 11.9444C20.6969 11.699 20.4979 11.5 20.2525 11.5H3.14136Z" fill="#D9D9D9"/>
<circle cx="15.1969" cy="9" r="1.5" fill="#FF5A5F"/>
</svg>
