<svg width="24" height="24" viewBox="0 0 24 24" fill="none" xmlns="http://www.w3.org/2000/svg">
<path d="M19.893 13.9638L19.5212 13.1209L16.9476 14.2564L15.2639 13.2838L18.1782 11.9995L15.2646 10.7155L16.9476 9.74426L19.5212 10.8798L19.8937 10.0351L17.9371 9.17172L20.9201 7.4509L20.3998 6.55074L17.417 8.27262L17.6481 6.14676L16.7313 6.04672L16.4273 8.84266L14.7443 9.81492L15.0892 6.65L12.5198 8.53094V6.58711L14.7902 4.92531L14.2459 4.18098L12.5198 5.4448V2H11.4807V5.4448L9.75531 4.18098L9.21031 4.92531L11.4807 6.58711V8.53094L8.91129 6.6507L9.25484 9.81457L7.57324 8.84262L7.26859 6.04668L6.3518 6.14672L6.58289 8.27258L3.6007 6.5507L3.08047 7.45086L6.0634 9.17168L4.10684 10.0351L4.47867 10.8798L7.0516 9.74422L8.73605 10.7154L5.82238 12.0001L6.77945 12.4221L8.73605 13.2845L7.0523 14.2564L4.47867 13.1209L4.10617 13.9638L6.06344 14.8275L3.0791 16.5502L3.60074 17.4507L6.58367 15.7281L6.35184 17.8536L7.26863 17.9532L7.57258 15.1566L9.25492 14.1854L8.91066 17.35L11.4807 15.4691V17.4132L9.21035 19.0744L9.75535 19.818L11.4807 18.5552V22H12.5198V18.5552L14.246 19.818L14.7903 19.0744L12.5198 17.4126V15.4698L15.0893 17.3504L14.745 14.1854L16.4273 15.1566L16.7327 17.9533L17.6481 17.8536L17.4177 15.7282L20.3999 17.4507L20.9201 16.5502L17.9365 14.8276L19.893 13.9638ZM8.10844 12.0002L9.7243 11.2877L10.9599 12.0002L9.72504 12.7138L8.10844 12.0002ZM11.4808 14.3264L10.0537 15.3704L10.2453 13.6143L11.4808 12.9007V14.3264ZM11.4808 11.0993L10.2453 10.3864L10.0537 8.62988L11.4808 9.67355V11.0993ZM12.5199 9.67355L13.947 8.62988L13.7548 10.3864L12.5199 11.0993V9.67355ZM12.5199 14.3264V12.9007L13.7548 13.6143L13.947 15.3704L12.5199 14.3264ZM14.275 12.7138L13.0401 12.0002L14.2757 11.2877L15.8923 12.0002L14.275 12.7138Z" fill="#98BFFA"/>
</svg>
