<svg width="24" height="24" viewBox="0 0 24 24" fill="none" xmlns="http://www.w3.org/2000/svg">
<path d="M15.3149 4.78408C15.7479 4.44127 15.821 3.81233 15.4782 3.37933C15.1354 2.94632 14.5065 2.87319 14.0735 3.216L15.3149 4.78408ZM11.3789 5.34933C10.9458 5.69215 10.8727 6.32108 11.2155 6.75408C11.5583 7.18709 12.1873 7.26023 12.6202 6.91741L11.3789 5.34933ZM11.3789 6.91741C11.8118 7.26023 12.4407 7.18709 12.7835 6.75408C13.1263 6.32108 13.0533 5.69215 12.6202 5.34933L11.3789 6.91741ZM9.92552 3.216C9.49258 2.87319 8.86363 2.94632 8.52081 3.37933C8.178 3.81233 8.25113 4.44127 8.68414 4.78408L9.92552 3.216ZM10.9995 6.13337C10.9995 6.68565 11.4473 7.13337 11.9995 7.13337C12.5518 7.13337 12.9995 6.68565 12.9995 6.13337H10.9995ZM12.9995 1.33337C12.9995 0.781094 12.5518 0.333374 11.9995 0.333374C11.4473 0.333374 10.9995 0.781094 10.9995 1.33337H12.9995ZM12.9995 6.13337C12.9995 5.58109 12.5518 5.13337 11.9995 5.13337C11.4473 5.13337 10.9995 5.58109 10.9995 6.13337H12.9995ZM10.9995 17.8667C10.9995 18.419 11.4473 18.8667 11.9995 18.8667C12.5518 18.8667 12.9995 18.419 12.9995 17.8667H10.9995ZM8.68414 19.216C8.25113 19.5588 8.178 20.1878 8.52081 20.6207C8.86363 21.0538 9.49258 21.1268 9.92552 20.784L8.68414 19.216ZM12.6202 18.6507C13.0533 18.3079 13.1263 17.679 12.7835 17.246C12.4407 16.813 11.8118 16.7399 11.3789 17.0827L12.6202 18.6507ZM12.6202 17.0827C12.1873 16.7399 11.5583 16.813 11.2155 17.246C10.8727 17.679 10.9458 18.3079 11.3789 18.6507L12.6202 17.0827ZM14.0735 20.784C14.5065 21.1268 15.1354 21.0538 15.4782 20.6207C15.821 20.1878 15.7479 19.5588 15.3149 19.216L14.0735 20.784ZM12.9995 17.8667C12.9995 17.3144 12.5518 16.8667 11.9995 16.8667C11.4473 16.8667 10.9995 17.3144 10.9995 17.8667H12.9995ZM10.9995 22.6667C10.9995 23.219 11.4473 23.6667 11.9995 23.6667C12.5518 23.6667 12.9995 23.219 12.9995 22.6667H10.9995ZM4.01354 12.758C3.49844 12.5588 2.91937 12.815 2.72017 13.33C2.52096 13.8451 2.77705 14.4242 3.29216 14.6234L4.01354 12.758ZM6.50549 15.866C7.0206 16.0652 7.59967 15.8091 7.79887 15.294C7.99808 14.779 7.74198 14.1999 7.22688 14.0007L6.50549 15.866ZM7.85453 15.0856C7.93861 14.5398 7.56426 14.0291 7.01841 13.945C6.47257 13.861 5.96192 14.2352 5.87784 14.7811L7.85453 15.0856ZM5.35784 18.1571C5.27376 18.703 5.64811 19.2136 6.19396 19.2978C6.7398 19.3818 7.25045 19.0075 7.33453 18.4616L5.35784 18.1571ZM7.36232 15.8016C7.84184 15.5276 8.00844 14.9167 7.73442 14.4372C7.46041 13.9578 6.84956 13.7911 6.37005 14.0651L7.36232 15.8016ZM2.17005 16.4651C1.69053 16.7391 1.52393 17.35 1.79795 17.8295C2.07196 18.309 2.68281 18.4756 3.16232 18.2016L2.17005 16.4651ZM6.37005 14.0651C5.89053 14.3391 5.72393 14.95 5.99794 15.4295C6.27196 15.909 6.88281 16.0756 7.36232 15.8016L6.37005 14.0651ZM17.629 9.93497C18.1085 9.66097 18.2751 9.05008 18.0011 8.57057C17.7271 8.09105 17.1162 7.92445 16.6367 8.19847L17.629 9.93497ZM19.9855 11.242C20.5006 11.4412 21.0797 11.1851 21.2789 10.67C21.4781 10.155 21.2219 9.57591 20.7069 9.37671L19.9855 11.242ZM17.4935 8.13403C16.9785 7.93481 16.3994 8.19091 16.2002 8.70601C16.001 9.22112 16.2571 9.80017 16.7722 9.99937L17.4935 8.13403ZM16.1445 8.91447C16.0605 9.46031 16.4347 9.97097 16.9806 10.0551C17.5265 10.1391 18.0371 9.76484 18.1213 9.21895L16.1445 8.91447ZM18.6413 5.84293C18.7253 5.29709 18.351 4.78644 17.8051 4.70236C17.2593 4.61828 16.7486 4.99263 16.6645 5.53848L18.6413 5.84293ZM16.6367 8.19847C16.1573 8.47247 15.9906 9.08333 16.2646 9.56284C16.5386 10.0423 17.1495 10.209 17.629 9.93497L16.6367 8.19847ZM21.829 7.53495C22.3085 7.26093 22.4751 6.65008 22.2011 6.17057C21.9271 5.69105 21.3162 5.52445 20.8367 5.79847L21.829 7.53495ZM3.29216 9.37671C2.77705 9.57591 2.52096 10.155 2.72017 10.67C2.91937 11.1851 3.49844 11.4412 4.01354 11.242L3.29216 9.37671ZM7.22688 9.99937C7.74198 9.80017 7.99808 9.22112 7.79887 8.70601C7.59967 8.19091 7.0206 7.93481 6.50549 8.13403L7.22688 9.99937ZM5.87784 9.21895C5.96192 9.76484 6.47257 10.1391 7.01841 10.0551C7.56426 9.97097 7.93861 9.46031 7.85453 8.91447L5.87784 9.21895ZM7.33453 5.53848C7.25045 4.99263 6.7398 4.61828 6.19396 4.70236C5.64811 4.78644 5.27376 5.29709 5.35784 5.84293L7.33453 5.53848ZM6.37005 9.93497C6.84956 10.209 7.46041 10.0423 7.73442 9.56284C8.00844 9.08333 7.84184 8.47247 7.36232 8.19847L6.37005 9.93497ZM3.16232 5.79847C2.68281 5.52445 2.07196 5.69105 1.79795 6.17057C1.52393 6.65008 1.69053 7.26093 2.17005 7.53495L3.16232 5.79847ZM7.36232 8.19847C6.88281 7.92445 6.27196 8.09105 5.99794 8.57057C5.72393 9.05008 5.89053 9.66097 6.37005 9.93497L7.36232 8.19847ZM16.6367 15.8016C17.1162 16.0756 17.7271 15.909 18.0011 15.4295C18.2751 14.95 18.1085 14.3391 17.629 14.0651L16.6367 15.8016ZM20.7069 14.6234C21.2219 14.4242 21.4781 13.8451 21.2789 13.33C21.0797 12.815 20.5006 12.5588 19.9855 12.758L20.7069 14.6234ZM16.7722 14.0007C16.2571 14.1999 16.001 14.779 16.2002 15.294C16.3994 15.8091 16.9785 16.0652 17.4935 15.866L16.7722 14.0007ZM18.1213 14.7811C18.0371 14.2352 17.5265 13.861 16.9806 13.945C16.4347 14.0291 16.0605 14.5398 16.1445 15.0856L18.1213 14.7811ZM16.6645 18.4616C16.7486 19.0075 17.2593 19.3818 17.8051 19.2978C18.351 19.2136 18.7253 18.703 18.6413 18.1571L16.6645 18.4616ZM17.629 14.0651C17.1495 13.7911 16.5386 13.9578 16.2646 14.4372C15.9906 14.9167 16.1573 15.5276 16.6367 15.8016L17.629 14.0651ZM20.8367 18.2016C21.3162 18.4756 21.9271 18.309 22.2011 17.8295C22.4751 17.35 22.3085 16.7391 21.829 16.4651L20.8367 18.2016ZM14.0735 3.216L11.3789 5.34933L12.6202 6.91741L15.3149 4.78408L14.0735 3.216ZM12.6202 5.34933L9.92552 3.216L8.68414 4.78408L11.3789 6.91741L12.6202 5.34933ZM12.9995 6.13337V1.33337H10.9995V6.13337H12.9995ZM10.9995 6.13337V17.8667H12.9995V6.13337H10.9995ZM9.92552 20.784L12.6202 18.6507L11.3789 17.0827L8.68414 19.216L9.92552 20.784ZM11.3789 18.6507L14.0735 20.784L15.3149 19.216L12.6202 17.0827L11.3789 18.6507ZM10.9995 17.8667V22.6667H12.9995V17.8667H10.9995ZM3.29216 14.6234L6.50549 15.866L7.22688 14.0007L4.01354 12.758L3.29216 14.6234ZM5.87784 14.7811L5.35784 18.1571L7.33453 18.4616L7.85453 15.0856L5.87784 14.7811ZM6.37005 14.0651L2.17005 16.4651L3.16232 18.2016L7.36232 15.8016L6.37005 14.0651ZM7.36232 15.8016L17.629 9.93497L16.6367 8.19847L6.37005 14.0651L7.36232 15.8016ZM20.7069 9.37671L17.4935 8.13403L16.7722 9.99937L19.9855 11.242L20.7069 9.37671ZM18.1213 9.21895L18.6413 5.84293L16.6645 5.53848L16.1445 8.91447L18.1213 9.21895ZM17.629 9.93497L21.829 7.53495L20.8367 5.79847L16.6367 8.19847L17.629 9.93497ZM4.01354 11.242L7.22688 9.99937L6.50549 8.13403L3.29216 9.37671L4.01354 11.242ZM7.85453 8.91447L7.33453 5.53848L5.35784 5.84293L5.87784 9.21895L7.85453 8.91447ZM7.36232 8.19847L3.16232 5.79847L2.17005 7.53495L6.37005 9.93497L7.36232 8.19847ZM6.37005 9.93497L16.6367 15.8016L17.629 14.0651L7.36232 8.19847L6.37005 9.93497ZM19.9855 12.758L16.7722 14.0007L17.4935 15.866L20.7069 14.6234L19.9855 12.758ZM16.1445 15.0856L16.6645 18.4616L18.6413 18.1571L18.1213 14.7811L16.1445 15.0856ZM16.6367 15.8016L20.8367 18.2016L21.829 16.4651L17.629 14.0651L16.6367 15.8016Z" fill="#98BFFA"/>
</svg>
