<svg width="16" height="16" viewBox="0 0 16 16" fill="none" xmlns="http://www.w3.org/2000/svg">
<path fill-rule="evenodd" clip-rule="evenodd" d="M8 14C11.3137 14 14 11.3137 14 8C14 4.68629 11.3137 2 8 2C4.68629 2 2 4.68629 2 8C2 11.3137 4.68629 14 8 14ZM9.41421 5.87868C9.60948 5.68342 9.92606 5.68342 10.1213 5.87868C10.3166 6.07394 10.3166 6.39052 10.1213 6.58579L8.70711 8L10.1213 9.41421C10.3166 9.60948 10.3166 9.92606 10.1213 10.1213C9.92606 10.3166 9.60948 10.3166 9.41421 10.1213L8 8.70711L6.58579 10.1213C6.39052 10.3166 6.07394 10.3166 5.87868 10.1213C5.68342 9.92606 5.68342 9.60948 5.87868 9.41421L7.29289 8L5.87868 6.58579C5.68342 6.39052 5.68342 6.07394 5.87868 5.87868C6.07394 5.68342 6.39052 5.68342 6.58579 5.87868L8 7.29289L9.41421 5.87868Z" fill="#A9ADB9"/>
</svg>
