<svg width="24" height="24" viewBox="0 0 24 24" fill="none" xmlns="http://www.w3.org/2000/svg">
<path d="M12.4707 7.94397C12.4707 7.54878 12.7017 7.19151 13.0656 7.03751C14.2827 6.5225 17.0333 5.41175 18.1178 5.41174C19.1574 5.41174 20.0001 6.2545 20.0001 7.2941V15.1443C20.0001 16.062 19.3755 16.862 18.4852 17.0846L13.092 18.4329C12.7764 18.5118 12.4707 18.2731 12.4707 17.9478V7.94397Z" fill="white"/>
<path d="M4 7.29411C4 6.25453 4.84277 5.41176 5.88235 5.41174C7.17553 5.41172 9.79794 6.51477 10.9568 7.03212C11.3091 7.18942 11.5294 7.53997 11.5294 7.92584V17.9478C11.5294 18.2731 11.2237 18.5118 10.9081 18.4329L5.51493 17.0846C4.6246 16.862 4 16.0621 4 15.1443V7.29411Z" fill="white"/>
</svg>
