<svg width="24" height="24" viewBox="0 0 24 24" fill="none" xmlns="http://www.w3.org/2000/svg">
<path fill-rule="evenodd" clip-rule="evenodd" d="M17.6564 6.34294C17.2659 5.95242 16.6327 5.95242 16.2422 6.34294L11.9996 10.5855L7.75701 6.34295C7.36648 5.95243 6.73332 5.95243 6.34279 6.34295C5.95227 6.73348 5.95227 7.36664 6.34279 7.75717L10.5854 11.9998L6.3427 16.2424C5.95217 16.633 5.95217 17.2661 6.3427 17.6567C6.73322 18.0472 7.36639 18.0472 7.75691 17.6567L11.9996 13.414L16.2423 17.6567C16.6328 18.0472 17.266 18.0472 17.6565 17.6567C18.047 17.2661 18.047 16.633 17.6565 16.2424L13.4138 11.9998L17.6564 7.75716C18.0469 7.36663 18.0469 6.73347 17.6564 6.34294Z" fill="white"/>
</svg>
