<svg width="24" height="24" viewBox="0 0 24 24" fill="none" xmlns="http://www.w3.org/2000/svg">
<path fill-rule="evenodd" clip-rule="evenodd" d="M8.75 13.475C8.75 12.8236 9.19941 12.2692 9.69409 11.8453C10.4827 11.1696 11 10.0353 11 8.75C11 6.67893 9.65685 5 8 5C6.34315 5 5 6.67893 5 8.75C5 10.0353 5.51733 11.1696 6.30591 11.8453C6.80059 12.2692 7.25 12.8236 7.25 13.475V17.75C7.25 18.1642 7.58579 18.5 8 18.5C8.41421 18.5 8.75 18.1642 8.75 17.75V13.475Z" fill="white"/>
<path fill-rule="evenodd" clip-rule="evenodd" d="M14.5 5.75C14.5 5.33579 14.1642 5 13.75 5C13.3358 5 13 5.33579 13 5.75V10.25V10.25C13 10.4711 13.0175 10.7023 13.0026 10.9229C13.0009 10.9484 13 10.9741 13 11C13 11.6213 13.5037 12.125 14.125 12.125V12.125C14.7463 12.125 15.25 12.6287 15.25 13.25V17.75C15.25 18.1642 15.5858 18.5 16 18.5C16.4142 18.5 16.75 18.1642 16.75 17.75V13.25C16.75 12.6287 17.2537 12.125 17.875 12.125V12.125C18.4963 12.125 19 11.6213 19 11C19 10.9741 18.9991 10.9484 18.9974 10.9229C18.9825 10.7023 19 10.4711 19 10.25V10.25V5.75C19 5.33579 18.6642 5 18.25 5C17.8358 5 17.5 5.33579 17.5 5.75V9.5C17.5 9.70711 17.3321 9.875 17.125 9.875V9.875C16.9179 9.875 16.75 9.70711 16.75 9.5V9.5V5.75C16.75 5.33579 16.4142 5 16 5C15.5858 5 15.25 5.33579 15.25 5.75V9.5V9.5C15.25 9.70711 15.0821 9.875 14.875 9.875V9.875C14.6679 9.875 14.5 9.70711 14.5 9.5L14.5 5.75Z" fill="white"/>
</svg>
