<svg width="24" height="24" viewBox="0 0 24 24" fill="none" xmlns="http://www.w3.org/2000/svg">
<path fill-rule="evenodd" clip-rule="evenodd" d="M13.527 3.88174C12.582 3.33613 11.4176 3.33613 10.4726 3.88174L5.73275 6.6183C4.78773 7.16391 4.20557 8.17224 4.20557 9.26346V14.7366C4.20557 15.8278 4.78773 16.8361 5.73275 17.3817L10.4726 20.1183C11.4176 20.6639 12.582 20.6639 13.527 20.1183L18.2668 17.3817C19.2119 16.8361 19.794 15.8278 19.794 14.7366V9.26346C19.794 8.17224 19.2119 7.16391 18.2668 6.6183L13.527 3.88174ZM11.9999 14.9999C13.6568 14.9999 14.9999 13.6568 14.9999 11.9999C14.9999 10.3431 13.6568 8.99994 11.9999 8.99994C10.3431 8.99994 8.99993 10.3431 8.99993 11.9999C8.99993 13.6568 10.3431 14.9999 11.9999 14.9999Z" fill="#A0A0A0"/>
</svg>
