<svg width="32" height="32" viewBox="0 0 32 32" fill="none" xmlns="http://www.w3.org/2000/svg">
<path fill-rule="evenodd" clip-rule="evenodd" d="M26.8296 0H20.1172L4.11719 16L20.1172 32H26.8296C27.3048 32 27.5427 31.4255 27.2067 31.0895L12.1172 16L27.2067 0.910457C27.5427 0.574476 27.3048 0 26.8296 0Z" fill="#98BFFA"/>
<path fill-rule="evenodd" clip-rule="evenodd" d="M11.8836 0H5.17114C4.69599 0 4.45803 0.574476 4.79401 0.910457L12.0004 8.11689L16.0004 4.11689L11.8836 0ZM20.0004 8.11689L16.0004 12.1169L19.8835 16L4.794 31.0895C4.45802 31.4255 4.69597 32 5.17112 32H11.8835L27.8836 16L20.0004 8.11689Z" fill="#408CFF"/>
<path fill-rule="evenodd" clip-rule="evenodd" d="M19 0.5C19 0.223858 19.2239 0 19.5 0H21.5H25H27H27.5C27.7761 0 28 0.223858 28 0.5V0.5C28 0.636482 27.9846 0.777057 27.9963 0.913036C27.9987 0.941696 28 0.970701 28 1C28 1.55228 27.5523 2 27 2H25C24.8009 2 24.6154 1.94183 24.4596 1.84156C23.9952 1.5427 23.5523 1 23 1H22.5C22.2239 1 22 1.22386 22 1.5V1.5C22 1.77614 21.7761 2 21.5 2C21.2239 2 21 1.77614 21 1.5V1.5C21 1.22386 20.7761 1 20.5 1H19.5C19.2239 1 19 0.776142 19 0.5Z" fill="white"/>
<path fill-rule="evenodd" clip-rule="evenodd" d="M3 1C3 0.447715 3.44772 0 4 0H4.5H6H9H10H12.5C12.7761 0 13 0.223858 13 0.5V2.5C13 2.77614 12.7761 3 12.5 3C12.2239 3 12 2.77614 12 2.5V1.5C12 1.22386 11.7761 1 11.5 1V1C11.2239 1 11.0104 1.23726 10.8778 1.47949C10.708 1.78966 10.3785 2 10 2H9C8.62145 2 8.29203 1.78966 8.12224 1.47949C7.98964 1.23726 7.77614 1 7.5 1V1C7.22386 1 7.01036 1.23726 6.87776 1.47949C6.70797 1.78966 6.37855 2 6 2V2C5.44772 2 5 2.44772 5 3V3.5C5 3.77614 4.77614 4 4.5 4C4.22386 4 4 3.77614 4 3.5V3C4 2.44772 3.4573 2.00484 3.15844 1.5404C3.05817 1.38456 3 1.19908 3 1Z" fill="white"/>
</svg>
