<svg width="32" height="32" viewBox="0 0 32 32" fill="none" xmlns="http://www.w3.org/2000/svg">
<circle cx="16" cy="16" r="8" fill="#FF5A5F"/>
<path fill-rule="evenodd" clip-rule="evenodd" d="M18.8281 13.1715C18.4375 12.781 17.8047 12.781 17.4141 13.1715L16 14.5856L14.5859 13.1715C14.1953 12.781 13.562 12.781 13.1719 13.1715C12.7812 13.5621 12.7812 14.1952 13.1719 14.5858L14.5859 15.9997L13.1714 17.4142C12.7808 17.8047 12.7808 18.4379 13.1714 18.8284C13.562 19.2189 14.1948 19.2189 14.5854 18.8284L16 17.4138L17.4146 18.8284C17.8047 19.219 18.438 19.219 18.8286 18.8284C19.2192 18.4379 19.2192 17.8047 18.8286 17.4142L17.4141 15.9997L18.8281 14.5858C19.2188 14.1952 19.2188 13.5621 18.8281 13.1715Z" fill="white"/>
</svg>
