<svg width="32" height="32" viewBox="0 0 32 32" fill="none" xmlns="http://www.w3.org/2000/svg">
<rect width="32" height="32" rx="8" fill="none"/>
<rect x="15" y="6" width="2" height="6" rx="1" fill="#408CFF"/>
<rect x="28" y="20" width="1" height="24" rx="0.500001" transform="rotate(90 28 20)" fill="#408CFF"/>
<path fill-rule="evenodd" clip-rule="evenodd" d="M21.5001 19C21.7762 19 22.0023 18.7754 21.9796 18.5002C21.7256 15.4203 19.1455 13 16.0001 13C12.8547 13 10.2746 15.4203 10.0206 18.5002C9.99792 18.7754 10.2239 19 10.5001 19H21.5001Z" fill="#408CFF"/>
<rect x="23.7783" y="10.8076" width="2" height="4" rx="1" transform="rotate(45 23.7783 10.8076)" fill="#408CFF"/>
<rect x="11.0503" y="13.636" width="2" height="4" rx="1" transform="rotate(135 11.0503 13.636)" fill="#408CFF"/>
</svg>
