<svg width="32" height="32" viewBox="0 0 32 32" fill="none" xmlns="http://www.w3.org/2000/svg">
<g id="Group 16">
<rect id="Rectangle 247" width="32" height="32" rx="8" fill="#408CFF"/>
<path id="Union" fill-rule="evenodd" clip-rule="evenodd" d="M12.75 17.475C12.75 16.8236 13.1994 16.2692 13.6941 15.8453C14.4827 15.1696 15 14.0353 15 12.75C15 10.6789 13.6569 9 12 9C10.3431 9 9 10.6789 9 12.75C9 14.0353 9.51733 15.1696 10.3059 15.8453C10.8006 16.2692 11.25 16.8236 11.25 17.475V21.75C11.25 22.1642 11.5858 22.5 12 22.5C12.4142 22.5 12.75 22.1642 12.75 21.75V17.475Z" fill="white"/>
<path id="Union_2" fill-rule="evenodd" clip-rule="evenodd" d="M18.5 9.75C18.5 9.33579 18.1642 9 17.75 9C17.3358 9 17 9.33579 17 9.75V14.25V14.25C17 14.4711 17.0175 14.7023 17.0026 14.9229C17.0009 14.9484 17 14.9741 17 15C17 15.6213 17.5037 16.125 18.125 16.125V16.125C18.7463 16.125 19.25 16.6287 19.25 17.25V21.75C19.25 22.1642 19.5858 22.5 20 22.5C20.4142 22.5 20.75 22.1642 20.75 21.75V17.25C20.75 16.6287 21.2537 16.125 21.875 16.125V16.125C22.4963 16.125 23 15.6213 23 15C23 14.9741 22.9991 14.9484 22.9974 14.9229C22.9825 14.7023 23 14.4711 23 14.25V14.25V9.75C23 9.33579 22.6642 9 22.25 9C21.8358 9 21.5 9.33579 21.5 9.75V13.5C21.5 13.7071 21.3321 13.875 21.125 13.875V13.875C20.9179 13.875 20.75 13.7071 20.75 13.5V13.5V9.75C20.75 9.33579 20.4142 9 20 9C19.5858 9 19.25 9.33579 19.25 9.75V13.5V13.5C19.25 13.7071 19.0821 13.875 18.875 13.875V13.875C18.6679 13.875 18.5 13.7071 18.5 13.5L18.5 9.75Z" fill="white"/>
</g>
</svg>
