<svg width="20" height="20" viewBox="0 0 20 20" fill="none" xmlns="http://www.w3.org/2000/svg">
<g id="Group 21">
<circle id="Ellipse 7" cx="6.5" cy="7.5" r="2.5" fill="#98BFFA"/>
<circle id="Ellipse 8" cx="13.5" cy="7.5" r="2.5" fill="#408CFF"/>
<path id="Rectangle 294" d="M6.5 11C8.49335 11 9.60371 11.7849 10.2222 12.6593C11.0196 13.7865 9.88071 15 8.5 15H4.5C3.11929 15 1.98044 13.7865 2.77778 12.6593C3.39629 11.7849 4.50665 11 6.5 11Z" fill="#98BFFA"/>
<path id="Rectangle 295" d="M13.5 11C15.4934 11 16.6037 11.7849 17.2222 12.6593C18.0196 13.7865 16.8807 15 15.5 15H11.5C10.1193 15 8.98044 13.7865 9.77778 12.6593C10.3963 11.7849 11.5066 11 13.5 11Z" fill="#408CFF"/>
</g>
</svg>
