<svg width="20" height="20" viewBox="0 0 20 20" fill="none" xmlns="http://www.w3.org/2000/svg">
<path fill-rule="evenodd" clip-rule="evenodd" d="M11.4423 11.4368C11.4415 11.4376 11.4406 11.4385 11.4398 11.4394C9.87766 13.0015 7.345 13.0015 5.7829 11.4394C4.2208 9.87726 4.2208 7.3446 5.7829 5.7825C7.345 4.22041 9.87766 4.22041 11.4398 5.7825C13.001 7.34374 13.0019 9.87448 11.4423 11.4368ZM13.5024 12.0878C15.1723 9.74459 14.9562 6.47051 12.854 4.36829C10.5108 2.02514 6.71183 2.02515 4.36869 4.36829C2.02554 6.71144 2.02554 10.5104 4.36869 12.8536C6.47092 14.9558 9.745 15.1719 12.0882 13.502L15.6824 17.0962C16.0729 17.4867 16.7061 17.4867 17.0966 17.0962C17.4871 16.7057 17.4871 16.0725 17.0966 15.682L13.5024 12.0878Z" fill="#408CFF"/>
</svg>
