<svg width="128" height="128" viewBox="0 0 128 128" fill="none" xmlns="http://www.w3.org/2000/svg">
<g clip-path="url(#clip0_70_595)">
<g filter="url(#filter0_d_70_595)">
<rect width="128" height="128" rx="8" fill="url(#paint0_linear_70_595)"/>
</g>
<path d="M59.5259 115.216C61.3878 114.855 63.489 104.875 63.489 104.875L69.8828 82.5954L60.7742 23.6386C60.7742 23.6386 62.019 47.8419 56.7003 68.4841C51.8184 87.4309 34.9129 114.02 38.6232 115.21C42.3335 116.4 55.0425 116.084 59.5259 115.216Z" fill="white"/>
<path d="M60.6163 14.6482C61.3268 10.7016 79.7981 12.1224 81.3769 14.6482C83.0691 17.3555 80.3367 23.7173 79.7981 35.2511C79.3789 44.6669 79.5261 56.1467 80.5172 70.063C81.7063 85.2501 90.4551 112.769 89.9815 114.663C89.5078 116.558 71.6677 115.216 69.3038 115.216C66.8033 115.216 66.994 105.644 64.7508 86.2698C63.6403 76.829 62.3965 65.053 61.758 50.9224C61.2499 40.2097 59.9058 18.5948 60.6163 14.6482Z" fill="white"/>
</g>
<defs>
<filter id="filter0_d_70_595" x="0" y="0" width="128" height="131" filterUnits="userSpaceOnUse" color-interpolation-filters="sRGB">
<feFlood flood-opacity="0" result="BackgroundImageFix"/>
<feColorMatrix in="SourceAlpha" type="matrix" values="0 0 0 0 0 0 0 0 0 0 0 0 0 0 0 0 0 0 127 0" result="hardAlpha"/>
<feOffset dy="3"/>
<feComposite in2="hardAlpha" operator="out"/>
<feColorMatrix type="matrix" values="0 0 0 0 0.152292 0 0 0 0 0.406329 0 0 0 0 0.85 0 0 0 1 0"/>
<feBlend mode="normal" in2="BackgroundImageFix" result="effect1_dropShadow_70_595"/>
<feBlend mode="normal" in="SourceGraphic" in2="effect1_dropShadow_70_595" result="shape"/>
</filter>
<linearGradient id="paint0_linear_70_595" x1="103.5" y1="-1.91244e-06" x2="39.8125" y2="128" gradientUnits="userSpaceOnUse">
<stop stop-color="#58C2FF"/>
<stop offset="1" stop-color="#326EFD"/>
</linearGradient>
<clipPath id="clip0_70_595">
<rect width="128" height="128" rx="16" fill="white"/>
</clipPath>
</defs>
</svg>
